<mxfile host="app.diagrams.net" modified="2022-09-22T03:37:11.607Z" agent="5.0 (Windows NT 10.0; Win64; x64) AppleWebKit/537.36 (KHTML, like Gecko) Chrome/105.0.0.0 Safari/537.36" etag="o5uW_SehG0U_8m1Otukb" version="20.3.3" type="github" pages="6">
  <diagram id="caipq0Zi8jMYTzpVwic8" name="Problem">
    <mxGraphModel dx="1254" dy="740" grid="1" gridSize="10" guides="1" tooltips="1" connect="1" arrows="1" fold="1" page="1" pageScale="1" pageWidth="850" pageHeight="1100" math="0" shadow="0">
      <root>
        <mxCell id="0" />
        <mxCell id="1" parent="0" />
        <mxCell id="sW1Mit5LW0IJ_BD4tYRS-1" value="&lt;b&gt;Problem:&lt;/b&gt;&lt;br&gt;In order to populate data on a database with Turo vehicle data, data must be scraped from the Turo website &amp;amp; uploaded. This service should be able to handle any number of urls posted from a scraping scheduler service. Raw data should be uploaded to the database with exception of thumbnails, which should be uploaded to a FS, and the url should be uploaded to the time series DB.&lt;br&gt;&lt;br&gt;&lt;b&gt;Requirements:&lt;br&gt;&lt;/b&gt;-API should accept urls &amp;amp; optional scrape filters -&amp;gt;&amp;nbsp;&lt;br&gt;-url should be scraped for relevant information based on optional scrape filters&lt;br&gt;-If thumbnail has changed, upload to FS&lt;br&gt;-Raw data should be uploaded to time series DB&lt;br&gt;&lt;br&gt;&lt;b&gt;Users:&lt;br&gt;&lt;/b&gt;-Scraping scheduler&lt;br&gt;-manual api calls&lt;br&gt;&lt;br&gt;&lt;b&gt;Logging:&lt;br&gt;&lt;/b&gt;-Need to see summary of listings added to DB &amp;amp; head of data&lt;br&gt;-Need to see summary of listings scraped &amp;amp; head of data&lt;br&gt;-Need url of image if new&lt;br&gt;-Need api calls&lt;br&gt;-Scrape time&lt;br&gt;&lt;br&gt;&lt;b&gt;Required Data To Scrape:&lt;/b&gt;&lt;br&gt;-Unique Listing ID (user Turo url ID)&lt;br&gt;-Vehicle Make&lt;br&gt;-Vehicle Model&lt;br&gt;-Trim&lt;br&gt;-Vehicle Year&lt;br&gt;-# of Trips&lt;br&gt;-Rating&lt;br&gt;-# ratings&lt;br&gt;-# Reviews&lt;br&gt;-List of delivery locations &amp;amp; prices&lt;br&gt;-Thumbnail&lt;br&gt;-Rental date&lt;br&gt;-Per day price&lt;br&gt;-TuroGo Enabled&lt;br&gt;-Class of vehicle&lt;br&gt;-Distance included&lt;br&gt;&lt;br&gt;-&lt;b&gt;Optionally&lt;/b&gt;:&lt;br&gt;-Extras offered&lt;br&gt;-Last-minute price boost&lt;br&gt;-3+ day&lt;br&gt;-7+ day&lt;br&gt;-30+ day&lt;br&gt;-Early bird discount&lt;br&gt;&lt;div&gt;-Owner Availability times&lt;/div&gt;&lt;div&gt;-Advanced Notice for host&lt;/div&gt;&lt;div&gt;-All-star host&lt;/div&gt;&lt;div&gt;-Host rating&lt;/div&gt;&lt;div&gt;-response rate&lt;/div&gt;&lt;div&gt;-# host trips&lt;/div&gt;" style="rounded=0;whiteSpace=wrap;html=1;align=left;verticalAlign=top;" parent="1" vertex="1">
          <mxGeometry x="40" y="30" width="310" height="850" as="geometry" />
        </mxCell>
      </root>
    </mxGraphModel>
  </diagram>
  <diagram id="0qn9n6EWcN4d0jXP8-5p" name="Use Case Diagram">
    <mxGraphModel dx="1038" dy="539" grid="1" gridSize="10" guides="1" tooltips="1" connect="1" arrows="1" fold="1" page="1" pageScale="1" pageWidth="850" pageHeight="1100" math="0" shadow="0">
      <root>
        <mxCell id="0" />
        <mxCell id="1" parent="0" />
        <mxCell id="zse7T27fTIH4ahiTM5nG-1" value="&lt;b&gt;Scraping&lt;br&gt;Scheduler&lt;br&gt;&lt;/b&gt;" style="shape=umlActor;verticalLabelPosition=bottom;verticalAlign=top;html=1;outlineConnect=0;" vertex="1" parent="1">
          <mxGeometry x="70" y="120" width="30" height="60" as="geometry" />
        </mxCell>
        <mxCell id="zse7T27fTIH4ahiTM5nG-3" value="&lt;b&gt;Admin&lt;br&gt;&lt;/b&gt;" style="shape=umlActor;verticalLabelPosition=bottom;verticalAlign=top;html=1;outlineConnect=0;" vertex="1" parent="1">
          <mxGeometry x="70" y="340" width="30" height="60" as="geometry" />
        </mxCell>
        <mxCell id="zse7T27fTIH4ahiTM5nG-4" value="Scrape required data" style="ellipse;whiteSpace=wrap;html=1;" vertex="1" parent="1">
          <mxGeometry x="250" y="40" width="110" height="70" as="geometry" />
        </mxCell>
        <mxCell id="zse7T27fTIH4ahiTM5nG-5" value="Scrape optional data" style="ellipse;whiteSpace=wrap;html=1;" vertex="1" parent="1">
          <mxGeometry x="250" y="130" width="110" height="70" as="geometry" />
        </mxCell>
        <mxCell id="zse7T27fTIH4ahiTM5nG-6" value="" style="endArrow=classic;html=1;rounded=0;" edge="1" parent="1" target="zse7T27fTIH4ahiTM5nG-4">
          <mxGeometry width="50" height="50" relative="1" as="geometry">
            <mxPoint x="120" y="150" as="sourcePoint" />
            <mxPoint x="320" y="120" as="targetPoint" />
          </mxGeometry>
        </mxCell>
        <mxCell id="zse7T27fTIH4ahiTM5nG-7" value="" style="endArrow=classic;html=1;rounded=0;entryX=0;entryY=0.5;entryDx=0;entryDy=0;" edge="1" parent="1" target="zse7T27fTIH4ahiTM5nG-5">
          <mxGeometry width="50" height="50" relative="1" as="geometry">
            <mxPoint x="130" y="160" as="sourcePoint" />
            <mxPoint x="268.6133732881922" y="103.8053892074895" as="targetPoint" />
          </mxGeometry>
        </mxCell>
        <mxCell id="zse7T27fTIH4ahiTM5nG-8" value="View Items added to DB" style="ellipse;whiteSpace=wrap;html=1;" vertex="1" parent="1">
          <mxGeometry x="250" y="220" width="110" height="77" as="geometry" />
        </mxCell>
        <mxCell id="m0AArXn-tRAfNud7FIpE-1" value="View Items&lt;br&gt;scraped" style="ellipse;whiteSpace=wrap;html=1;" vertex="1" parent="1">
          <mxGeometry x="250" y="310" width="110" height="77" as="geometry" />
        </mxCell>
        <mxCell id="2TvVeAhI7jEPd0MKH2li-1" value="View new &lt;br&gt;thumbnail url" style="ellipse;whiteSpace=wrap;html=1;" vertex="1" parent="1">
          <mxGeometry x="250" y="400" width="110" height="77" as="geometry" />
        </mxCell>
        <mxCell id="wSbw9-VT_Lb8DX0gDGvC-1" value="View API Calls" style="ellipse;whiteSpace=wrap;html=1;" vertex="1" parent="1">
          <mxGeometry x="250" y="490" width="110" height="77" as="geometry" />
        </mxCell>
        <mxCell id="BIC-_8Cp9dVTEz8O6u69-1" value="" style="endArrow=classic;html=1;rounded=0;entryX=0;entryY=1;entryDx=0;entryDy=0;" edge="1" parent="1" target="zse7T27fTIH4ahiTM5nG-4">
          <mxGeometry width="50" height="50" relative="1" as="geometry">
            <mxPoint x="110" y="320" as="sourcePoint" />
            <mxPoint x="260" y="175" as="targetPoint" />
          </mxGeometry>
        </mxCell>
        <mxCell id="BIC-_8Cp9dVTEz8O6u69-2" value="" style="endArrow=classic;html=1;rounded=0;entryX=0;entryY=1;entryDx=0;entryDy=0;" edge="1" parent="1" target="zse7T27fTIH4ahiTM5nG-5">
          <mxGeometry width="50" height="50" relative="1" as="geometry">
            <mxPoint x="120" y="330" as="sourcePoint" />
            <mxPoint x="276.1091270347399" y="109.74873734152925" as="targetPoint" />
          </mxGeometry>
        </mxCell>
        <mxCell id="BIC-_8Cp9dVTEz8O6u69-3" value="" style="endArrow=classic;html=1;rounded=0;" edge="1" parent="1" target="zse7T27fTIH4ahiTM5nG-8">
          <mxGeometry width="50" height="50" relative="1" as="geometry">
            <mxPoint x="130" y="340" as="sourcePoint" />
            <mxPoint x="276.1091270347399" y="199.74873734152925" as="targetPoint" />
          </mxGeometry>
        </mxCell>
        <mxCell id="BIC-_8Cp9dVTEz8O6u69-4" value="" style="endArrow=classic;html=1;rounded=0;entryX=0;entryY=0.5;entryDx=0;entryDy=0;" edge="1" parent="1" target="m0AArXn-tRAfNud7FIpE-1">
          <mxGeometry width="50" height="50" relative="1" as="geometry">
            <mxPoint x="130" y="360" as="sourcePoint" />
            <mxPoint x="269.1223259069309" y="289.7348091516493" as="targetPoint" />
          </mxGeometry>
        </mxCell>
        <mxCell id="BIC-_8Cp9dVTEz8O6u69-5" value="" style="endArrow=classic;html=1;rounded=0;entryX=0;entryY=0.5;entryDx=0;entryDy=0;" edge="1" parent="1" target="2TvVeAhI7jEPd0MKH2li-1">
          <mxGeometry width="50" height="50" relative="1" as="geometry">
            <mxPoint x="130" y="380" as="sourcePoint" />
            <mxPoint x="260" y="358.5" as="targetPoint" />
          </mxGeometry>
        </mxCell>
        <mxCell id="BIC-_8Cp9dVTEz8O6u69-6" value="" style="endArrow=classic;html=1;rounded=0;entryX=0;entryY=0;entryDx=0;entryDy=0;" edge="1" parent="1" target="wSbw9-VT_Lb8DX0gDGvC-1">
          <mxGeometry width="50" height="50" relative="1" as="geometry">
            <mxPoint x="120" y="400" as="sourcePoint" />
            <mxPoint x="260" y="448.5" as="targetPoint" />
          </mxGeometry>
        </mxCell>
      </root>
    </mxGraphModel>
  </diagram>
  <diagram id="b9QRMDCg_2D02ucUDwC-" name="Activity Diagram (If Applicable)">
    <mxGraphModel dx="1054" dy="740" grid="1" gridSize="10" guides="1" tooltips="1" connect="1" arrows="1" fold="1" page="1" pageScale="1" pageWidth="850" pageHeight="1100" math="0" shadow="0">
      <root>
        <mxCell id="0" />
        <mxCell id="1" parent="0" />
        <mxCell id="VPsrGsyR2HTx51GlbL5T-3" value="" style="edgeStyle=orthogonalEdgeStyle;rounded=0;orthogonalLoop=1;jettySize=auto;html=1;fontSize=10;" parent="1" source="VPsrGsyR2HTx51GlbL5T-1" target="VPsrGsyR2HTx51GlbL5T-2" edge="1">
          <mxGeometry relative="1" as="geometry" />
        </mxCell>
        <mxCell id="VPsrGsyR2HTx51GlbL5T-1" value="Start" style="ellipse;whiteSpace=wrap;html=1;aspect=fixed;fontSize=10;" parent="1" vertex="1">
          <mxGeometry x="140" y="40" width="50" height="50" as="geometry" />
        </mxCell>
        <mxCell id="VPsrGsyR2HTx51GlbL5T-9" value="" style="edgeStyle=orthogonalEdgeStyle;rounded=0;orthogonalLoop=1;jettySize=auto;html=1;fontSize=10;" parent="1" source="VPsrGsyR2HTx51GlbL5T-2" target="VPsrGsyR2HTx51GlbL5T-6" edge="1">
          <mxGeometry relative="1" as="geometry" />
        </mxCell>
        <mxCell id="VPsrGsyR2HTx51GlbL5T-2" value="Schedular calls API with list of urls" style="rounded=1;whiteSpace=wrap;html=1;fontSize=10;" parent="1" vertex="1">
          <mxGeometry x="105" y="130" width="120" height="40" as="geometry" />
        </mxCell>
        <mxCell id="VPsrGsyR2HTx51GlbL5T-39" style="edgeStyle=orthogonalEdgeStyle;rounded=0;orthogonalLoop=1;jettySize=auto;html=1;exitX=0.5;exitY=1;exitDx=0;exitDy=0;entryX=0.5;entryY=0;entryDx=0;entryDy=0;fontSize=10;" parent="1" source="VPsrGsyR2HTx51GlbL5T-5" target="VPsrGsyR2HTx51GlbL5T-37" edge="1">
          <mxGeometry relative="1" as="geometry" />
        </mxCell>
        <mxCell id="VPsrGsyR2HTx51GlbL5T-5" value="Generate scrape objects with filters &amp;amp; add to queue" style="rounded=1;whiteSpace=wrap;html=1;fontSize=10;" parent="1" vertex="1">
          <mxGeometry x="105" y="270" width="120" height="40" as="geometry" />
        </mxCell>
        <mxCell id="VPsrGsyR2HTx51GlbL5T-8" style="edgeStyle=orthogonalEdgeStyle;rounded=0;orthogonalLoop=1;jettySize=auto;html=1;exitX=1;exitY=0.5;exitDx=0;exitDy=0;fontSize=10;" parent="1" source="VPsrGsyR2HTx51GlbL5T-6" edge="1">
          <mxGeometry relative="1" as="geometry">
            <mxPoint x="235" y="220" as="targetPoint" />
          </mxGeometry>
        </mxCell>
        <mxCell id="VPsrGsyR2HTx51GlbL5T-18" value="&lt;b&gt;N&lt;/b&gt;" style="edgeLabel;html=1;align=center;verticalAlign=middle;resizable=0;points=[];fontSize=10;" parent="VPsrGsyR2HTx51GlbL5T-8" vertex="1" connectable="0">
          <mxGeometry x="-0.792" y="-1" relative="1" as="geometry">
            <mxPoint x="-5" y="-11" as="offset" />
          </mxGeometry>
        </mxCell>
        <mxCell id="VPsrGsyR2HTx51GlbL5T-17" style="edgeStyle=orthogonalEdgeStyle;rounded=0;orthogonalLoop=1;jettySize=auto;html=1;entryX=0.5;entryY=0;entryDx=0;entryDy=0;fontSize=10;" parent="1" source="VPsrGsyR2HTx51GlbL5T-6" target="VPsrGsyR2HTx51GlbL5T-5" edge="1">
          <mxGeometry relative="1" as="geometry" />
        </mxCell>
        <mxCell id="VPsrGsyR2HTx51GlbL5T-19" value="&lt;b&gt;Y&lt;/b&gt;" style="edgeLabel;html=1;align=center;verticalAlign=middle;resizable=0;points=[];fontSize=10;" parent="VPsrGsyR2HTx51GlbL5T-17" vertex="1" connectable="0">
          <mxGeometry x="-0.728" y="1" relative="1" as="geometry">
            <mxPoint x="9" y="-7" as="offset" />
          </mxGeometry>
        </mxCell>
        <mxCell id="VPsrGsyR2HTx51GlbL5T-6" value="Valid&lt;br&gt;Request" style="rhombus;whiteSpace=wrap;html=1;fontSize=10;" parent="1" vertex="1">
          <mxGeometry x="135" y="190" width="60" height="60" as="geometry" />
        </mxCell>
        <mxCell id="VPsrGsyR2HTx51GlbL5T-15" style="edgeStyle=orthogonalEdgeStyle;rounded=0;orthogonalLoop=1;jettySize=auto;html=1;entryX=0.5;entryY=0;entryDx=0;entryDy=0;fontSize=10;exitX=1;exitY=0.5;exitDx=0;exitDy=0;" parent="1" source="VPsrGsyR2HTx51GlbL5T-7" target="VPsrGsyR2HTx51GlbL5T-14" edge="1">
          <mxGeometry relative="1" as="geometry">
            <Array as="points">
              <mxPoint x="575" y="220" />
            </Array>
          </mxGeometry>
        </mxCell>
        <mxCell id="VPsrGsyR2HTx51GlbL5T-7" value="Return Error to client" style="rounded=1;whiteSpace=wrap;html=1;fontSize=10;" parent="1" vertex="1">
          <mxGeometry x="400" y="200" width="120" height="40" as="geometry" />
        </mxCell>
        <mxCell id="VPsrGsyR2HTx51GlbL5T-10" value="End" style="ellipse;whiteSpace=wrap;html=1;aspect=fixed;fontSize=10;" parent="1" vertex="1">
          <mxGeometry x="550" y="1190" width="50" height="50" as="geometry" />
        </mxCell>
        <mxCell id="VPsrGsyR2HTx51GlbL5T-16" style="edgeStyle=orthogonalEdgeStyle;rounded=0;orthogonalLoop=1;jettySize=auto;html=1;entryX=0.5;entryY=0;entryDx=0;entryDy=0;fontSize=10;" parent="1" source="VPsrGsyR2HTx51GlbL5T-14" target="VPsrGsyR2HTx51GlbL5T-10" edge="1">
          <mxGeometry relative="1" as="geometry" />
        </mxCell>
        <mxCell id="VPsrGsyR2HTx51GlbL5T-14" value="" style="rhombus;whiteSpace=wrap;html=1;fontSize=10;" parent="1" vertex="1">
          <mxGeometry x="545" y="1080" width="60" height="60" as="geometry" />
        </mxCell>
        <mxCell id="VPsrGsyR2HTx51GlbL5T-26" style="edgeStyle=orthogonalEdgeStyle;rounded=0;orthogonalLoop=1;jettySize=auto;html=1;fontSize=10;" parent="1" source="VPsrGsyR2HTx51GlbL5T-24" target="VPsrGsyR2HTx51GlbL5T-14" edge="1">
          <mxGeometry relative="1" as="geometry" />
        </mxCell>
        <mxCell id="VPsrGsyR2HTx51GlbL5T-27" value="&lt;b&gt;N&lt;/b&gt;" style="edgeLabel;html=1;align=center;verticalAlign=middle;resizable=0;points=[];fontSize=10;" parent="VPsrGsyR2HTx51GlbL5T-26" vertex="1" connectable="0">
          <mxGeometry x="-0.7185" y="-1" relative="1" as="geometry">
            <mxPoint x="-143" y="-11" as="offset" />
          </mxGeometry>
        </mxCell>
        <mxCell id="VPsrGsyR2HTx51GlbL5T-31" value="" style="edgeStyle=orthogonalEdgeStyle;rounded=0;orthogonalLoop=1;jettySize=auto;html=1;fontSize=10;" parent="1" source="VPsrGsyR2HTx51GlbL5T-24" target="VPsrGsyR2HTx51GlbL5T-28" edge="1">
          <mxGeometry relative="1" as="geometry" />
        </mxCell>
        <mxCell id="VPsrGsyR2HTx51GlbL5T-33" value="&lt;b&gt;Y&lt;/b&gt;" style="edgeLabel;html=1;align=center;verticalAlign=middle;resizable=0;points=[];fontSize=10;" parent="VPsrGsyR2HTx51GlbL5T-31" vertex="1" connectable="0">
          <mxGeometry x="0.4622" relative="1" as="geometry">
            <mxPoint x="10" y="-4" as="offset" />
          </mxGeometry>
        </mxCell>
        <mxCell id="VPsrGsyR2HTx51GlbL5T-24" value="Queue" style="rhombus;whiteSpace=wrap;html=1;fontSize=10;" parent="1" vertex="1">
          <mxGeometry x="135" y="410" width="60" height="60" as="geometry" />
        </mxCell>
        <mxCell id="VPsrGsyR2HTx51GlbL5T-49" value="" style="edgeStyle=orthogonalEdgeStyle;rounded=0;orthogonalLoop=1;jettySize=auto;html=1;fontSize=8;" parent="1" source="VPsrGsyR2HTx51GlbL5T-28" target="VPsrGsyR2HTx51GlbL5T-32" edge="1">
          <mxGeometry relative="1" as="geometry" />
        </mxCell>
        <mxCell id="VPsrGsyR2HTx51GlbL5T-28" value="Pop from head" style="rounded=1;whiteSpace=wrap;html=1;fontSize=10;" parent="1" vertex="1">
          <mxGeometry x="105" y="490" width="120" height="40" as="geometry" />
        </mxCell>
        <mxCell id="VPsrGsyR2HTx51GlbL5T-51" value="" style="edgeStyle=orthogonalEdgeStyle;rounded=0;orthogonalLoop=1;jettySize=auto;html=1;fontSize=8;" parent="1" source="VPsrGsyR2HTx51GlbL5T-32" target="VPsrGsyR2HTx51GlbL5T-50" edge="1">
          <mxGeometry relative="1" as="geometry" />
        </mxCell>
        <mxCell id="VPsrGsyR2HTx51GlbL5T-32" value="Scrape data" style="rounded=1;whiteSpace=wrap;html=1;fontSize=10;" parent="1" vertex="1">
          <mxGeometry x="105" y="550" width="120" height="40" as="geometry" />
        </mxCell>
        <mxCell id="VPsrGsyR2HTx51GlbL5T-38" value="" style="edgeStyle=orthogonalEdgeStyle;rounded=0;orthogonalLoop=1;jettySize=auto;html=1;fontSize=10;" parent="1" source="VPsrGsyR2HTx51GlbL5T-37" edge="1">
          <mxGeometry relative="1" as="geometry">
            <mxPoint x="165" y="410" as="targetPoint" />
          </mxGeometry>
        </mxCell>
        <mxCell id="VPsrGsyR2HTx51GlbL5T-40" value="&lt;b&gt;Y&lt;/b&gt;" style="edgeLabel;html=1;align=center;verticalAlign=middle;resizable=0;points=[];fontSize=8;" parent="VPsrGsyR2HTx51GlbL5T-38" vertex="1" connectable="0">
          <mxGeometry x="0.4496" relative="1" as="geometry">
            <mxPoint x="10" y="-3" as="offset" />
          </mxGeometry>
        </mxCell>
        <mxCell id="VPsrGsyR2HTx51GlbL5T-44" style="edgeStyle=orthogonalEdgeStyle;rounded=0;orthogonalLoop=1;jettySize=auto;html=1;entryX=0;entryY=0.5;entryDx=0;entryDy=0;fontSize=8;" parent="1" source="VPsrGsyR2HTx51GlbL5T-37" target="VPsrGsyR2HTx51GlbL5T-43" edge="1">
          <mxGeometry relative="1" as="geometry" />
        </mxCell>
        <mxCell id="VPsrGsyR2HTx51GlbL5T-46" value="&lt;b&gt;N&lt;/b&gt;" style="edgeLabel;html=1;align=center;verticalAlign=middle;resizable=0;points=[];fontSize=8;" parent="VPsrGsyR2HTx51GlbL5T-44" vertex="1" connectable="0">
          <mxGeometry x="-0.6889" y="1" relative="1" as="geometry">
            <mxPoint x="-6" y="-9" as="offset" />
          </mxGeometry>
        </mxCell>
        <mxCell id="VPsrGsyR2HTx51GlbL5T-37" value="&lt;font style=&quot;font-size: 8px;&quot;&gt;valid scrape&lt;br&gt;obj&lt;/font&gt;" style="rhombus;whiteSpace=wrap;html=1;fontSize=10;" parent="1" vertex="1">
          <mxGeometry x="135" y="330" width="60" height="60" as="geometry" />
        </mxCell>
        <mxCell id="VPsrGsyR2HTx51GlbL5T-42" style="edgeStyle=orthogonalEdgeStyle;rounded=0;orthogonalLoop=1;jettySize=auto;html=1;fontSize=8;" parent="1" source="VPsrGsyR2HTx51GlbL5T-41" target="VPsrGsyR2HTx51GlbL5T-7" edge="1">
          <mxGeometry relative="1" as="geometry" />
        </mxCell>
        <mxCell id="VPsrGsyR2HTx51GlbL5T-41" value="Log error" style="rounded=1;whiteSpace=wrap;html=1;fontSize=10;" parent="1" vertex="1">
          <mxGeometry x="235" y="200" width="120" height="40" as="geometry" />
        </mxCell>
        <mxCell id="VPsrGsyR2HTx51GlbL5T-45" style="edgeStyle=orthogonalEdgeStyle;rounded=0;orthogonalLoop=1;jettySize=auto;html=1;fontSize=8;entryX=0.5;entryY=0;entryDx=0;entryDy=0;" parent="1" source="VPsrGsyR2HTx51GlbL5T-43" target="VPsrGsyR2HTx51GlbL5T-14" edge="1">
          <mxGeometry relative="1" as="geometry">
            <mxPoint x="375" y="499.9999999999999" as="targetPoint" />
          </mxGeometry>
        </mxCell>
        <mxCell id="VPsrGsyR2HTx51GlbL5T-43" value="Log Constructor Error" style="rounded=1;whiteSpace=wrap;html=1;fontSize=10;" parent="1" vertex="1">
          <mxGeometry x="235" y="340" width="120" height="40" as="geometry" />
        </mxCell>
        <mxCell id="VPsrGsyR2HTx51GlbL5T-47" value="For each &lt;br&gt;scrape object" style="text;html=1;align=center;verticalAlign=middle;resizable=0;points=[];autosize=1;strokeColor=none;fillColor=none;fontSize=8;" parent="1" vertex="1">
          <mxGeometry x="80" y="320" width="70" height="30" as="geometry" />
        </mxCell>
        <mxCell id="VPsrGsyR2HTx51GlbL5T-53" style="edgeStyle=orthogonalEdgeStyle;rounded=0;orthogonalLoop=1;jettySize=auto;html=1;entryX=0;entryY=0.5;entryDx=0;entryDy=0;fontSize=8;" parent="1" source="VPsrGsyR2HTx51GlbL5T-50" target="VPsrGsyR2HTx51GlbL5T-52" edge="1">
          <mxGeometry relative="1" as="geometry" />
        </mxCell>
        <mxCell id="VPsrGsyR2HTx51GlbL5T-55" value="&lt;b&gt;Y&lt;/b&gt;" style="edgeLabel;html=1;align=center;verticalAlign=middle;resizable=0;points=[];fontSize=8;" parent="VPsrGsyR2HTx51GlbL5T-53" vertex="1" connectable="0">
          <mxGeometry x="-0.8308" relative="1" as="geometry">
            <mxPoint x="-3" y="-10" as="offset" />
          </mxGeometry>
        </mxCell>
        <mxCell id="VPsrGsyR2HTx51GlbL5T-58" value="" style="edgeStyle=orthogonalEdgeStyle;rounded=0;orthogonalLoop=1;jettySize=auto;html=1;fontSize=8;entryX=0.5;entryY=0;entryDx=0;entryDy=0;" parent="1" source="VPsrGsyR2HTx51GlbL5T-50" target="6ZcRiLIBuCxSSxzIiGLU-4" edge="1">
          <mxGeometry relative="1" as="geometry">
            <mxPoint x="165.0000000000001" y="700" as="targetPoint" />
          </mxGeometry>
        </mxCell>
        <mxCell id="VPsrGsyR2HTx51GlbL5T-59" value="&lt;b&gt;N&lt;/b&gt;" style="edgeLabel;html=1;align=center;verticalAlign=middle;resizable=0;points=[];fontSize=8;" parent="VPsrGsyR2HTx51GlbL5T-58" vertex="1" connectable="0">
          <mxGeometry x="-0.9164" relative="1" as="geometry">
            <mxPoint x="10" y="-3" as="offset" />
          </mxGeometry>
        </mxCell>
        <mxCell id="VPsrGsyR2HTx51GlbL5T-50" value="Scrape&lt;br&gt;Error" style="rhombus;whiteSpace=wrap;html=1;fontSize=10;" parent="1" vertex="1">
          <mxGeometry x="135" y="620" width="60" height="60" as="geometry" />
        </mxCell>
        <mxCell id="VPsrGsyR2HTx51GlbL5T-54" style="edgeStyle=orthogonalEdgeStyle;rounded=0;orthogonalLoop=1;jettySize=auto;html=1;fontSize=8;" parent="1" source="VPsrGsyR2HTx51GlbL5T-52" target="VPsrGsyR2HTx51GlbL5T-14" edge="1">
          <mxGeometry relative="1" as="geometry" />
        </mxCell>
        <mxCell id="VPsrGsyR2HTx51GlbL5T-52" value="Log Error" style="rounded=1;whiteSpace=wrap;html=1;fontSize=10;" parent="1" vertex="1">
          <mxGeometry x="235" y="630" width="120" height="40" as="geometry" />
        </mxCell>
        <mxCell id="VPsrGsyR2HTx51GlbL5T-62" style="edgeStyle=orthogonalEdgeStyle;rounded=0;orthogonalLoop=1;jettySize=auto;html=1;entryX=0;entryY=0.5;entryDx=0;entryDy=0;fontSize=8;" parent="1" source="VPsrGsyR2HTx51GlbL5T-60" target="VPsrGsyR2HTx51GlbL5T-61" edge="1">
          <mxGeometry relative="1" as="geometry" />
        </mxCell>
        <mxCell id="VPsrGsyR2HTx51GlbL5T-65" value="&lt;b&gt;Y&lt;/b&gt;" style="edgeLabel;html=1;align=center;verticalAlign=middle;resizable=0;points=[];fontSize=8;" parent="VPsrGsyR2HTx51GlbL5T-62" vertex="1" connectable="0">
          <mxGeometry x="-0.6615" relative="1" as="geometry">
            <mxPoint x="-8" y="-10" as="offset" />
          </mxGeometry>
        </mxCell>
        <mxCell id="VPsrGsyR2HTx51GlbL5T-68" value="" style="edgeStyle=orthogonalEdgeStyle;rounded=0;orthogonalLoop=1;jettySize=auto;html=1;fontSize=8;" parent="1" source="VPsrGsyR2HTx51GlbL5T-60" target="VPsrGsyR2HTx51GlbL5T-66" edge="1">
          <mxGeometry relative="1" as="geometry" />
        </mxCell>
        <mxCell id="VPsrGsyR2HTx51GlbL5T-69" value="&lt;b&gt;N&lt;/b&gt;" style="edgeLabel;html=1;align=center;verticalAlign=middle;resizable=0;points=[];fontSize=8;" parent="VPsrGsyR2HTx51GlbL5T-68" vertex="1" connectable="0">
          <mxGeometry x="0.2323" y="-1" relative="1" as="geometry">
            <mxPoint x="9" y="-3" as="offset" />
          </mxGeometry>
        </mxCell>
        <mxCell id="VPsrGsyR2HTx51GlbL5T-60" value="Thumnail&lt;br&gt;error" style="rhombus;whiteSpace=wrap;html=1;fontSize=10;" parent="1" vertex="1">
          <mxGeometry x="250" y="770" width="60" height="60" as="geometry" />
        </mxCell>
        <mxCell id="VPsrGsyR2HTx51GlbL5T-64" value="" style="edgeStyle=orthogonalEdgeStyle;rounded=0;orthogonalLoop=1;jettySize=auto;html=1;fontSize=8;" parent="1" source="VPsrGsyR2HTx51GlbL5T-61" target="VPsrGsyR2HTx51GlbL5T-63" edge="1">
          <mxGeometry relative="1" as="geometry" />
        </mxCell>
        <mxCell id="VPsrGsyR2HTx51GlbL5T-61" value="Log Error" style="rounded=1;whiteSpace=wrap;html=1;fontSize=10;" parent="1" vertex="1">
          <mxGeometry x="360" y="780" width="120" height="40" as="geometry" />
        </mxCell>
        <mxCell id="VPsrGsyR2HTx51GlbL5T-67" value="" style="edgeStyle=orthogonalEdgeStyle;rounded=0;orthogonalLoop=1;jettySize=auto;html=1;fontSize=8;" parent="1" source="VPsrGsyR2HTx51GlbL5T-63" target="VPsrGsyR2HTx51GlbL5T-66" edge="1">
          <mxGeometry relative="1" as="geometry" />
        </mxCell>
        <mxCell id="VPsrGsyR2HTx51GlbL5T-63" value="Revert to previous thumbnail url" style="rounded=1;whiteSpace=wrap;html=1;fontSize=10;" parent="1" vertex="1">
          <mxGeometry x="360" y="850" width="120" height="40" as="geometry" />
        </mxCell>
        <mxCell id="VPsrGsyR2HTx51GlbL5T-71" value="" style="edgeStyle=orthogonalEdgeStyle;rounded=0;orthogonalLoop=1;jettySize=auto;html=1;fontSize=8;" parent="1" source="VPsrGsyR2HTx51GlbL5T-66" target="VPsrGsyR2HTx51GlbL5T-70" edge="1">
          <mxGeometry relative="1" as="geometry" />
        </mxCell>
        <mxCell id="VPsrGsyR2HTx51GlbL5T-66" value="update url in vehicle data object" style="rounded=1;whiteSpace=wrap;html=1;fontSize=10;" parent="1" vertex="1">
          <mxGeometry x="220" y="850" width="120" height="40" as="geometry" />
        </mxCell>
        <mxCell id="VPsrGsyR2HTx51GlbL5T-73" value="" style="edgeStyle=orthogonalEdgeStyle;rounded=0;orthogonalLoop=1;jettySize=auto;html=1;fontSize=8;" parent="1" source="VPsrGsyR2HTx51GlbL5T-70" target="VPsrGsyR2HTx51GlbL5T-72" edge="1">
          <mxGeometry relative="1" as="geometry" />
        </mxCell>
        <mxCell id="VPsrGsyR2HTx51GlbL5T-70" value="Upload vehicle data to DB" style="rounded=1;whiteSpace=wrap;html=1;fontSize=10;" parent="1" vertex="1">
          <mxGeometry x="220" y="910" width="120" height="40" as="geometry" />
        </mxCell>
        <mxCell id="VPsrGsyR2HTx51GlbL5T-76" style="edgeStyle=orthogonalEdgeStyle;rounded=0;orthogonalLoop=1;jettySize=auto;html=1;fontSize=8;" parent="1" source="VPsrGsyR2HTx51GlbL5T-72" target="VPsrGsyR2HTx51GlbL5T-74" edge="1">
          <mxGeometry relative="1" as="geometry" />
        </mxCell>
        <mxCell id="VPsrGsyR2HTx51GlbL5T-78" value="&lt;b&gt;Y&lt;/b&gt;" style="edgeLabel;html=1;align=center;verticalAlign=middle;resizable=0;points=[];fontSize=8;" parent="VPsrGsyR2HTx51GlbL5T-76" vertex="1" connectable="0">
          <mxGeometry x="-0.7975" y="1" relative="1" as="geometry">
            <mxPoint x="-5" y="-9" as="offset" />
          </mxGeometry>
        </mxCell>
        <mxCell id="6ZcRiLIBuCxSSxzIiGLU-2" value="" style="edgeStyle=orthogonalEdgeStyle;rounded=0;orthogonalLoop=1;jettySize=auto;html=1;fontSize=8;" parent="1" source="VPsrGsyR2HTx51GlbL5T-72" target="6ZcRiLIBuCxSSxzIiGLU-1" edge="1">
          <mxGeometry relative="1" as="geometry" />
        </mxCell>
        <mxCell id="6ZcRiLIBuCxSSxzIiGLU-3" value="&lt;b&gt;N&lt;/b&gt;" style="edgeLabel;html=1;align=center;verticalAlign=middle;resizable=0;points=[];fontSize=8;" parent="6ZcRiLIBuCxSSxzIiGLU-2" vertex="1" connectable="0">
          <mxGeometry x="0.4116" relative="1" as="geometry">
            <mxPoint x="10" y="-2" as="offset" />
          </mxGeometry>
        </mxCell>
        <mxCell id="VPsrGsyR2HTx51GlbL5T-72" value="DB Error" style="rhombus;whiteSpace=wrap;html=1;fontSize=10;" parent="1" vertex="1">
          <mxGeometry x="250" y="970" width="60" height="60" as="geometry" />
        </mxCell>
        <mxCell id="VPsrGsyR2HTx51GlbL5T-77" style="edgeStyle=orthogonalEdgeStyle;rounded=0;orthogonalLoop=1;jettySize=auto;html=1;entryX=0.5;entryY=0;entryDx=0;entryDy=0;fontSize=8;" parent="1" source="VPsrGsyR2HTx51GlbL5T-74" target="VPsrGsyR2HTx51GlbL5T-14" edge="1">
          <mxGeometry relative="1" as="geometry" />
        </mxCell>
        <mxCell id="VPsrGsyR2HTx51GlbL5T-74" value="Log Error" style="rounded=1;whiteSpace=wrap;html=1;fontSize=10;" parent="1" vertex="1">
          <mxGeometry x="360" y="980" width="120" height="41" as="geometry" />
        </mxCell>
        <mxCell id="6ZcRiLIBuCxSSxzIiGLU-12" style="edgeStyle=orthogonalEdgeStyle;rounded=0;orthogonalLoop=1;jettySize=auto;html=1;fontSize=8;entryX=0;entryY=0.5;entryDx=0;entryDy=0;" parent="1" source="6ZcRiLIBuCxSSxzIiGLU-1" target="6ZcRiLIBuCxSSxzIiGLU-4" edge="1">
          <mxGeometry relative="1" as="geometry">
            <mxPoint x="49.999999999999886" y="790" as="targetPoint" />
            <Array as="points">
              <mxPoint x="80" y="1070" />
              <mxPoint x="80" y="730" />
            </Array>
          </mxGeometry>
        </mxCell>
        <mxCell id="6ZcRiLIBuCxSSxzIiGLU-1" value="Log uploaded data" style="rounded=1;whiteSpace=wrap;html=1;fontSize=10;" parent="1" vertex="1">
          <mxGeometry x="220" y="1050" width="120" height="41" as="geometry" />
        </mxCell>
        <mxCell id="6ZcRiLIBuCxSSxzIiGLU-6" value="" style="edgeStyle=orthogonalEdgeStyle;rounded=0;orthogonalLoop=1;jettySize=auto;html=1;fontSize=8;" parent="1" source="6ZcRiLIBuCxSSxzIiGLU-4" target="6ZcRiLIBuCxSSxzIiGLU-5" edge="1">
          <mxGeometry relative="1" as="geometry" />
        </mxCell>
        <mxCell id="6ZcRiLIBuCxSSxzIiGLU-7" value="&lt;b&gt;Y&lt;/b&gt;" style="edgeLabel;html=1;align=center;verticalAlign=middle;resizable=0;points=[];fontSize=8;" parent="6ZcRiLIBuCxSSxzIiGLU-6" vertex="1" connectable="0">
          <mxGeometry x="-0.827" y="1" relative="1" as="geometry">
            <mxPoint x="-4" y="-9" as="offset" />
          </mxGeometry>
        </mxCell>
        <mxCell id="KtzhCGeL9ZljHvV2TS3W-3" value="" style="edgeStyle=orthogonalEdgeStyle;rounded=0;orthogonalLoop=1;jettySize=auto;html=1;fontSize=12;" parent="1" source="6ZcRiLIBuCxSSxzIiGLU-4" target="KtzhCGeL9ZljHvV2TS3W-1" edge="1">
          <mxGeometry relative="1" as="geometry" />
        </mxCell>
        <mxCell id="KtzhCGeL9ZljHvV2TS3W-5" value="&lt;b&gt;&lt;font style=&quot;font-size: 8px;&quot;&gt;N&lt;/font&gt;&lt;/b&gt;" style="edgeLabel;html=1;align=center;verticalAlign=middle;resizable=0;points=[];fontSize=12;" parent="KtzhCGeL9ZljHvV2TS3W-3" vertex="1" connectable="0">
          <mxGeometry x="0.4499" relative="1" as="geometry">
            <mxPoint x="9" y="-5" as="offset" />
          </mxGeometry>
        </mxCell>
        <mxCell id="6ZcRiLIBuCxSSxzIiGLU-4" value="while&lt;br&gt;Vehicles" style="rhombus;whiteSpace=wrap;html=1;fontSize=10;" parent="1" vertex="1">
          <mxGeometry x="135" y="700" width="60" height="60" as="geometry" />
        </mxCell>
        <mxCell id="6ZcRiLIBuCxSSxzIiGLU-8" value="" style="edgeStyle=orthogonalEdgeStyle;rounded=0;orthogonalLoop=1;jettySize=auto;html=1;fontSize=8;" parent="1" source="6ZcRiLIBuCxSSxzIiGLU-5" edge="1">
          <mxGeometry relative="1" as="geometry">
            <mxPoint x="280" y="770" as="targetPoint" />
          </mxGeometry>
        </mxCell>
        <mxCell id="6ZcRiLIBuCxSSxzIiGLU-5" value="Handle Thumbnail" style="rounded=1;whiteSpace=wrap;html=1;fontSize=10;" parent="1" vertex="1">
          <mxGeometry x="220" y="710" width="120" height="40" as="geometry" />
        </mxCell>
        <mxCell id="KtzhCGeL9ZljHvV2TS3W-4" style="edgeStyle=orthogonalEdgeStyle;rounded=0;orthogonalLoop=1;jettySize=auto;html=1;entryX=0;entryY=0.5;entryDx=0;entryDy=0;fontSize=12;" parent="1" source="KtzhCGeL9ZljHvV2TS3W-1" target="VPsrGsyR2HTx51GlbL5T-24" edge="1">
          <mxGeometry relative="1" as="geometry">
            <Array as="points">
              <mxPoint x="30" y="800" />
              <mxPoint x="30" y="440" />
            </Array>
          </mxGeometry>
        </mxCell>
        <mxCell id="KtzhCGeL9ZljHvV2TS3W-1" value="Log Scraping Time" style="rounded=1;whiteSpace=wrap;html=1;fontSize=10;" parent="1" vertex="1">
          <mxGeometry x="105" y="780" width="120" height="40" as="geometry" />
        </mxCell>
      </root>
    </mxGraphModel>
  </diagram>
  <diagram id="RTJvNLbxPvpqfqzpSxGH" name="Collaboration Diagram">
    <mxGraphModel dx="1260" dy="740" grid="1" gridSize="10" guides="1" tooltips="1" connect="1" arrows="1" fold="1" page="1" pageScale="1" pageWidth="850" pageHeight="1100" math="0" shadow="0">
      <root>
        <mxCell id="0" />
        <mxCell id="1" parent="0" />
        <mxCell id="TPmFgkTzvXRMbJjfcOce-11" value="&lt;b&gt;Thread 1&lt;/b&gt;" style="rounded=0;whiteSpace=wrap;html=1;fontSize=8;fontColor=#FF3B14;fillColor=none;strokeColor=#FF3B14;dashed=1;strokeWidth=2;align=left;verticalAlign=top;" parent="1" vertex="1">
          <mxGeometry x="380" y="160" width="167.5" height="100" as="geometry" />
        </mxCell>
        <mxCell id="TPmFgkTzvXRMbJjfcOce-13" value="&lt;b&gt;Thread 3&lt;/b&gt;" style="rounded=0;whiteSpace=wrap;html=1;fontSize=8;fontColor=#FF3B14;fillColor=none;strokeColor=#FF3B14;dashed=1;strokeWidth=2;align=left;verticalAlign=top;" parent="1" vertex="1">
          <mxGeometry x="250" y="300" width="550" height="440" as="geometry" />
        </mxCell>
        <mxCell id="TPmFgkTzvXRMbJjfcOce-12" value="&lt;b&gt;Thread 2&lt;/b&gt;" style="rounded=0;whiteSpace=wrap;html=1;fontSize=8;fontColor=#FF3B14;fillColor=none;strokeColor=#FF3B14;dashed=1;strokeWidth=2;align=left;verticalAlign=top;" parent="1" vertex="1">
          <mxGeometry x="80" y="60" width="340" height="330" as="geometry" />
        </mxCell>
        <mxCell id="6D9iCb6M0t1CrYdoZL59-12" style="edgeStyle=orthogonalEdgeStyle;rounded=0;orthogonalLoop=1;jettySize=auto;html=1;entryX=0.5;entryY=0;entryDx=0;entryDy=0;fontSize=8;" parent="1" source="dGVBn-mebnh3Ec8yqR1I-2" target="6D9iCb6M0t1CrYdoZL59-11" edge="1">
          <mxGeometry relative="1" as="geometry" />
        </mxCell>
        <mxCell id="6D9iCb6M0t1CrYdoZL59-13" value="Start Data Ingestor&lt;br&gt;Pass Queue Ref" style="edgeLabel;html=1;align=center;verticalAlign=middle;resizable=0;points=[];fontSize=8;" parent="6D9iCb6M0t1CrYdoZL59-12" vertex="1" connectable="0">
          <mxGeometry x="0.2721" relative="1" as="geometry">
            <mxPoint y="-23" as="offset" />
          </mxGeometry>
        </mxCell>
        <mxCell id="dGVBn-mebnh3Ec8yqR1I-2" value="&lt;b&gt;Class:&lt;/b&gt;&lt;br&gt;App" style="rounded=1;whiteSpace=wrap;html=1;fontSize=12;" parent="1" vertex="1">
          <mxGeometry x="400" y="190" width="120" height="60" as="geometry" />
        </mxCell>
        <mxCell id="wm8CIyAyT2A5XXmFxwjZ-10" value="" style="edgeStyle=orthogonalEdgeStyle;rounded=0;orthogonalLoop=1;jettySize=auto;html=1;fontSize=8;exitX=0.25;exitY=0;exitDx=0;exitDy=0;entryX=0.25;entryY=1;entryDx=0;entryDy=0;" parent="1" source="wm8CIyAyT2A5XXmFxwjZ-1" target="wm8CIyAyT2A5XXmFxwjZ-9" edge="1">
          <mxGeometry relative="1" as="geometry" />
        </mxCell>
        <mxCell id="wm8CIyAyT2A5XXmFxwjZ-14" value="http request" style="edgeLabel;html=1;align=center;verticalAlign=middle;resizable=0;points=[];fontSize=8;" parent="wm8CIyAyT2A5XXmFxwjZ-10" vertex="1" connectable="0">
          <mxGeometry x="-0.1181" y="-1" relative="1" as="geometry">
            <mxPoint as="offset" />
          </mxGeometry>
        </mxCell>
        <mxCell id="wm8CIyAyT2A5XXmFxwjZ-1" value="&lt;b&gt;Class:&lt;/b&gt;&lt;br&gt;Server" style="rounded=1;whiteSpace=wrap;html=1;fontSize=12;" parent="1" vertex="1">
          <mxGeometry x="160" y="190" width="120" height="60" as="geometry" />
        </mxCell>
        <mxCell id="wm8CIyAyT2A5XXmFxwjZ-4" value="" style="endArrow=classic;html=1;rounded=0;fontSize=8;exitX=0;exitY=0.75;exitDx=0;exitDy=0;entryX=1;entryY=0.75;entryDx=0;entryDy=0;" parent="1" source="dGVBn-mebnh3Ec8yqR1I-2" target="wm8CIyAyT2A5XXmFxwjZ-1" edge="1">
          <mxGeometry width="50" height="50" relative="1" as="geometry">
            <mxPoint x="190" y="230" as="sourcePoint" />
            <mxPoint x="240" y="180" as="targetPoint" />
          </mxGeometry>
        </mxCell>
        <mxCell id="wm8CIyAyT2A5XXmFxwjZ-5" value="Start Server" style="edgeLabel;html=1;align=center;verticalAlign=middle;resizable=0;points=[];fontSize=8;" parent="wm8CIyAyT2A5XXmFxwjZ-4" vertex="1" connectable="0">
          <mxGeometry x="-0.1317" relative="1" as="geometry">
            <mxPoint as="offset" />
          </mxGeometry>
        </mxCell>
        <mxCell id="wm8CIyAyT2A5XXmFxwjZ-6" value="" style="endArrow=classic;html=1;rounded=0;fontSize=8;entryX=0;entryY=0.5;entryDx=0;entryDy=0;" parent="1" target="wm8CIyAyT2A5XXmFxwjZ-1" edge="1">
          <mxGeometry width="50" height="50" relative="1" as="geometry">
            <mxPoint x="70" y="220" as="sourcePoint" />
            <mxPoint x="280" y="140" as="targetPoint" />
          </mxGeometry>
        </mxCell>
        <mxCell id="wm8CIyAyT2A5XXmFxwjZ-8" value="Scrape Request" style="edgeLabel;html=1;align=center;verticalAlign=middle;resizable=0;points=[];fontSize=8;" parent="wm8CIyAyT2A5XXmFxwjZ-6" vertex="1" connectable="0">
          <mxGeometry x="-0.4536" relative="1" as="geometry">
            <mxPoint x="15" as="offset" />
          </mxGeometry>
        </mxCell>
        <mxCell id="wm8CIyAyT2A5XXmFxwjZ-7" value="Client" style="shape=umlActor;verticalLabelPosition=bottom;verticalAlign=top;html=1;outlineConnect=0;fontSize=8;" parent="1" vertex="1">
          <mxGeometry x="30" y="190" width="30" height="60" as="geometry" />
        </mxCell>
        <mxCell id="wm8CIyAyT2A5XXmFxwjZ-15" style="edgeStyle=orthogonalEdgeStyle;rounded=0;orthogonalLoop=1;jettySize=auto;html=1;exitX=0.75;exitY=1;exitDx=0;exitDy=0;entryX=0.75;entryY=0;entryDx=0;entryDy=0;fontSize=8;" parent="1" source="wm8CIyAyT2A5XXmFxwjZ-9" target="wm8CIyAyT2A5XXmFxwjZ-1" edge="1">
          <mxGeometry relative="1" as="geometry" />
        </mxCell>
        <mxCell id="wm8CIyAyT2A5XXmFxwjZ-16" value="validation" style="edgeLabel;html=1;align=center;verticalAlign=middle;resizable=0;points=[];fontSize=8;" parent="wm8CIyAyT2A5XXmFxwjZ-15" vertex="1" connectable="0">
          <mxGeometry x="-0.1066" y="1" relative="1" as="geometry">
            <mxPoint x="-5" as="offset" />
          </mxGeometry>
        </mxCell>
        <mxCell id="wm8CIyAyT2A5XXmFxwjZ-9" value="&lt;b&gt;Class:&lt;/b&gt;&lt;br&gt;HTTP validator" style="rounded=1;whiteSpace=wrap;html=1;fontSize=12;" parent="1" vertex="1">
          <mxGeometry x="160" y="80" width="120" height="60" as="geometry" />
        </mxCell>
        <mxCell id="6D9iCb6M0t1CrYdoZL59-1" value="&lt;b&gt;Class:&lt;/b&gt;&lt;br&gt;Scrape&lt;br&gt;&lt;font color=&quot;#ff3b14&quot;&gt;Possibly Thread Safe&lt;/font&gt;" style="rounded=1;whiteSpace=wrap;html=1;fontSize=12;" parent="1" vertex="1">
          <mxGeometry x="90" y="310" width="120" height="60" as="geometry" />
        </mxCell>
        <mxCell id="6D9iCb6M0t1CrYdoZL59-2" value="" style="endArrow=classic;html=1;rounded=0;fontSize=8;exitX=0.5;exitY=1;exitDx=0;exitDy=0;entryX=0.5;entryY=0;entryDx=0;entryDy=0;" parent="1" source="wm8CIyAyT2A5XXmFxwjZ-1" target="6D9iCb6M0t1CrYdoZL59-1" edge="1">
          <mxGeometry width="50" height="50" relative="1" as="geometry">
            <mxPoint x="230.0000000000001" y="160" as="sourcePoint" />
            <mxPoint x="230.0000000000001" y="200" as="targetPoint" />
          </mxGeometry>
        </mxCell>
        <mxCell id="6D9iCb6M0t1CrYdoZL59-3" value="Scrape Data" style="edgeLabel;html=1;align=center;verticalAlign=middle;resizable=0;points=[];fontSize=8;" parent="6D9iCb6M0t1CrYdoZL59-2" vertex="1" connectable="0">
          <mxGeometry x="-0.1317" relative="1" as="geometry">
            <mxPoint as="offset" />
          </mxGeometry>
        </mxCell>
        <mxCell id="6D9iCb6M0t1CrYdoZL59-4" value="" style="endArrow=classic;html=1;rounded=0;fontSize=8;exitX=0.25;exitY=0;exitDx=0;exitDy=0;entryX=0.25;entryY=1;entryDx=0;entryDy=0;" parent="1" source="6D9iCb6M0t1CrYdoZL59-1" target="wm8CIyAyT2A5XXmFxwjZ-1" edge="1">
          <mxGeometry width="50" height="50" relative="1" as="geometry">
            <mxPoint x="230" y="260" as="sourcePoint" />
            <mxPoint x="183.33333333333326" y="320" as="targetPoint" />
          </mxGeometry>
        </mxCell>
        <mxCell id="6D9iCb6M0t1CrYdoZL59-5" value="Scrape Obj" style="edgeLabel;html=1;align=center;verticalAlign=middle;resizable=0;points=[];fontSize=8;" parent="6D9iCb6M0t1CrYdoZL59-4" vertex="1" connectable="0">
          <mxGeometry x="-0.1317" relative="1" as="geometry">
            <mxPoint as="offset" />
          </mxGeometry>
        </mxCell>
        <mxCell id="6D9iCb6M0t1CrYdoZL59-6" value="&lt;b&gt;Class:&lt;/b&gt;&lt;br&gt;Queue&lt;br&gt;&lt;font style=&quot;&quot; color=&quot;#ff3b14&quot;&gt;Thread Safe&lt;/font&gt;" style="rounded=1;whiteSpace=wrap;html=1;fontSize=12;" parent="1" vertex="1">
          <mxGeometry x="290" y="320" width="120" height="60" as="geometry" />
        </mxCell>
        <mxCell id="6D9iCb6M0t1CrYdoZL59-7" value="" style="endArrow=classic;html=1;rounded=0;fontSize=8;exitX=1;exitY=0.25;exitDx=0;exitDy=0;entryX=0;entryY=0.25;entryDx=0;entryDy=0;" parent="1" source="wm8CIyAyT2A5XXmFxwjZ-1" target="dGVBn-mebnh3Ec8yqR1I-2" edge="1">
          <mxGeometry width="50" height="50" relative="1" as="geometry">
            <mxPoint x="440.0000000000002" y="320" as="sourcePoint" />
            <mxPoint x="290.0000000000001" y="260" as="targetPoint" />
          </mxGeometry>
        </mxCell>
        <mxCell id="6D9iCb6M0t1CrYdoZL59-8" value="Queue" style="edgeLabel;html=1;align=center;verticalAlign=middle;resizable=0;points=[];fontSize=8;" parent="6D9iCb6M0t1CrYdoZL59-7" vertex="1" connectable="0">
          <mxGeometry x="-0.1317" relative="1" as="geometry">
            <mxPoint as="offset" />
          </mxGeometry>
        </mxCell>
        <mxCell id="6D9iCb6M0t1CrYdoZL59-9" value="" style="endArrow=classic;html=1;rounded=0;fontSize=8;exitX=0.75;exitY=1;exitDx=0;exitDy=0;entryX=0.25;entryY=0;entryDx=0;entryDy=0;" parent="1" source="wm8CIyAyT2A5XXmFxwjZ-1" target="6D9iCb6M0t1CrYdoZL59-6" edge="1">
          <mxGeometry width="50" height="50" relative="1" as="geometry">
            <mxPoint x="410" y="245" as="sourcePoint" />
            <mxPoint x="290.0000000000001" y="245" as="targetPoint" />
          </mxGeometry>
        </mxCell>
        <mxCell id="6D9iCb6M0t1CrYdoZL59-10" value="Scrape Obj" style="edgeLabel;html=1;align=center;verticalAlign=middle;resizable=0;points=[];fontSize=8;" parent="6D9iCb6M0t1CrYdoZL59-9" vertex="1" connectable="0">
          <mxGeometry x="-0.1317" relative="1" as="geometry">
            <mxPoint as="offset" />
          </mxGeometry>
        </mxCell>
        <mxCell id="TPmFgkTzvXRMbJjfcOce-4" style="rounded=0;orthogonalLoop=1;jettySize=auto;html=1;fontSize=8;startArrow=none;startFill=0;exitX=1;exitY=0.75;exitDx=0;exitDy=0;entryX=0;entryY=0;entryDx=0;entryDy=0;" parent="1" source="6D9iCb6M0t1CrYdoZL59-11" target="TPmFgkTzvXRMbJjfcOce-2" edge="1">
          <mxGeometry relative="1" as="geometry">
            <mxPoint x="526.255" y="479.5899999999999" as="sourcePoint" />
            <mxPoint x="640.005" y="539.5899999999999" as="targetPoint" />
          </mxGeometry>
        </mxCell>
        <mxCell id="TPmFgkTzvXRMbJjfcOce-5" value="upload&lt;br&gt;Pass DB Wrapper" style="edgeLabel;html=1;align=center;verticalAlign=middle;resizable=0;points=[];fontSize=8;" parent="TPmFgkTzvXRMbJjfcOce-4" vertex="1" connectable="0">
          <mxGeometry x="0.2771" relative="1" as="geometry">
            <mxPoint x="-14" as="offset" />
          </mxGeometry>
        </mxCell>
        <mxCell id="6D9iCb6M0t1CrYdoZL59-11" value="&lt;b&gt;Class:&lt;/b&gt;&lt;br&gt;DataIngestor" style="rounded=1;whiteSpace=wrap;html=1;fontSize=12;" parent="1" vertex="1">
          <mxGeometry x="400" y="419.59" width="120" height="60" as="geometry" />
        </mxCell>
        <mxCell id="6D9iCb6M0t1CrYdoZL59-14" value="" style="endArrow=classic;html=1;rounded=0;fontSize=8;exitX=0.25;exitY=0;exitDx=0;exitDy=0;entryX=0.75;entryY=1;entryDx=0;entryDy=0;" parent="1" source="6D9iCb6M0t1CrYdoZL59-11" target="6D9iCb6M0t1CrYdoZL59-6" edge="1">
          <mxGeometry width="50" height="50" relative="1" as="geometry">
            <mxPoint x="260" y="269.59" as="sourcePoint" />
            <mxPoint x="390" y="379.59" as="targetPoint" />
          </mxGeometry>
        </mxCell>
        <mxCell id="6D9iCb6M0t1CrYdoZL59-15" value="Pop From Queue" style="edgeLabel;html=1;align=center;verticalAlign=middle;resizable=0;points=[];fontSize=8;" parent="6D9iCb6M0t1CrYdoZL59-14" vertex="1" connectable="0">
          <mxGeometry x="-0.1317" relative="1" as="geometry">
            <mxPoint as="offset" />
          </mxGeometry>
        </mxCell>
        <mxCell id="6D9iCb6M0t1CrYdoZL59-16" value="" style="endArrow=classic;html=1;rounded=0;fontSize=8;exitX=0.5;exitY=1;exitDx=0;exitDy=0;entryX=0;entryY=0.5;entryDx=0;entryDy=0;" parent="1" source="6D9iCb6M0t1CrYdoZL59-6" target="6D9iCb6M0t1CrYdoZL59-11" edge="1">
          <mxGeometry width="50" height="50" relative="1" as="geometry">
            <mxPoint x="440" y="429.58999999999986" as="sourcePoint" />
            <mxPoint x="400" y="389.5900000000001" as="targetPoint" />
          </mxGeometry>
        </mxCell>
        <mxCell id="6D9iCb6M0t1CrYdoZL59-17" value="Scrape Obj" style="edgeLabel;html=1;align=center;verticalAlign=middle;resizable=0;points=[];fontSize=8;" parent="6D9iCb6M0t1CrYdoZL59-16" vertex="1" connectable="0">
          <mxGeometry x="-0.1317" relative="1" as="geometry">
            <mxPoint y="9" as="offset" />
          </mxGeometry>
        </mxCell>
        <mxCell id="MP744RSqsg_AL9bL8WB9-26" style="edgeStyle=orthogonalEdgeStyle;rounded=0;orthogonalLoop=1;jettySize=auto;html=1;exitX=0.25;exitY=1;exitDx=0;exitDy=0;entryX=0.25;entryY=0;entryDx=0;entryDy=0;fontSize=8;startArrow=none;startFill=0;" parent="1" source="WLP-57AbZ-gEJUiFifkE-1" target="MP744RSqsg_AL9bL8WB9-24" edge="1">
          <mxGeometry relative="1" as="geometry" />
        </mxCell>
        <mxCell id="MP744RSqsg_AL9bL8WB9-27" value="scrape" style="edgeLabel;html=1;align=center;verticalAlign=middle;resizable=0;points=[];fontSize=8;" parent="MP744RSqsg_AL9bL8WB9-26" vertex="1" connectable="0">
          <mxGeometry x="0.2585" y="-1" relative="1" as="geometry">
            <mxPoint y="-12" as="offset" />
          </mxGeometry>
        </mxCell>
        <mxCell id="WLP-57AbZ-gEJUiFifkE-1" value="&lt;b&gt;Class:&lt;/b&gt;&lt;br&gt;Scrape&lt;br&gt;&lt;font color=&quot;#ff3b14&quot;&gt;Possibly Thread Safe&lt;/font&gt;" style="rounded=1;whiteSpace=wrap;html=1;fontSize=12;" parent="1" vertex="1">
          <mxGeometry x="260" y="539.5899999999999" width="120" height="60" as="geometry" />
        </mxCell>
        <mxCell id="WLP-57AbZ-gEJUiFifkE-2" value="" style="endArrow=classic;html=1;rounded=0;fontSize=8;exitX=0;exitY=0.75;exitDx=0;exitDy=0;entryX=0.75;entryY=0;entryDx=0;entryDy=0;" parent="1" source="6D9iCb6M0t1CrYdoZL59-11" target="WLP-57AbZ-gEJUiFifkE-1" edge="1">
          <mxGeometry width="50" height="50" relative="1" as="geometry">
            <mxPoint x="440" y="429.58999999999986" as="sourcePoint" />
            <mxPoint x="400" y="389.5900000000001" as="targetPoint" />
          </mxGeometry>
        </mxCell>
        <mxCell id="WLP-57AbZ-gEJUiFifkE-3" value="scrape data" style="edgeLabel;html=1;align=center;verticalAlign=middle;resizable=0;points=[];fontSize=8;" parent="WLP-57AbZ-gEJUiFifkE-2" vertex="1" connectable="0">
          <mxGeometry x="-0.1317" relative="1" as="geometry">
            <mxPoint as="offset" />
          </mxGeometry>
        </mxCell>
        <mxCell id="WLP-57AbZ-gEJUiFifkE-4" value="" style="endArrow=classic;html=1;rounded=0;fontSize=8;exitX=1;exitY=0.25;exitDx=0;exitDy=0;entryX=0.25;entryY=1;entryDx=0;entryDy=0;" parent="1" source="WLP-57AbZ-gEJUiFifkE-1" target="6D9iCb6M0t1CrYdoZL59-11" edge="1">
          <mxGeometry width="50" height="50" relative="1" as="geometry">
            <mxPoint x="410" y="474.58999999999986" as="sourcePoint" />
            <mxPoint x="340" y="509.58999999999986" as="targetPoint" />
          </mxGeometry>
        </mxCell>
        <mxCell id="WLP-57AbZ-gEJUiFifkE-5" value="vehicle list" style="edgeLabel;html=1;align=center;verticalAlign=middle;resizable=0;points=[];fontSize=8;" parent="WLP-57AbZ-gEJUiFifkE-4" vertex="1" connectable="0">
          <mxGeometry x="-0.1317" relative="1" as="geometry">
            <mxPoint as="offset" />
          </mxGeometry>
        </mxCell>
        <mxCell id="MP744RSqsg_AL9bL8WB9-15" style="edgeStyle=orthogonalEdgeStyle;rounded=0;orthogonalLoop=1;jettySize=auto;html=1;fontSize=8;startArrow=classic;startFill=1;" parent="1" source="MP744RSqsg_AL9bL8WB9-1" edge="1">
          <mxGeometry relative="1" as="geometry">
            <mxPoint x="500" y="659.59" as="targetPoint" />
          </mxGeometry>
        </mxCell>
        <mxCell id="MP744RSqsg_AL9bL8WB9-18" value="Thumbnail Comparision" style="edgeLabel;html=1;align=center;verticalAlign=middle;resizable=0;points=[];fontSize=8;" parent="MP744RSqsg_AL9bL8WB9-15" vertex="1" connectable="0">
          <mxGeometry x="0.2023" relative="1" as="geometry">
            <mxPoint y="-6" as="offset" />
          </mxGeometry>
        </mxCell>
        <mxCell id="MP744RSqsg_AL9bL8WB9-1" value="&lt;b&gt;Class:&lt;/b&gt;&lt;br&gt;ThumbnailHandler" style="rounded=1;whiteSpace=wrap;html=1;fontSize=12;" parent="1" vertex="1">
          <mxGeometry x="440" y="539.59" width="120" height="60" as="geometry" />
        </mxCell>
        <mxCell id="MP744RSqsg_AL9bL8WB9-3" value="" style="endArrow=none;dashed=1;html=1;rounded=0;fontSize=8;exitX=0;exitY=0;exitDx=0;exitDy=0;entryX=0.75;entryY=1;entryDx=0;entryDy=0;" parent="1" source="WLP-57AbZ-gEJUiFifkE-1" edge="1">
          <mxGeometry width="50" height="50" relative="1" as="geometry">
            <mxPoint x="540" y="479.59" as="sourcePoint" />
            <mxPoint x="180" y="379.59" as="targetPoint" />
          </mxGeometry>
        </mxCell>
        <mxCell id="MP744RSqsg_AL9bL8WB9-4" value="Shared Class&amp;nbsp;&lt;br&gt;Between Threads&lt;br&gt;Might need thread safe" style="edgeLabel;html=1;align=center;verticalAlign=middle;resizable=0;points=[];fontSize=8;" parent="MP744RSqsg_AL9bL8WB9-3" vertex="1" connectable="0">
          <mxGeometry x="0.2247" y="1" relative="1" as="geometry">
            <mxPoint x="10" y="13" as="offset" />
          </mxGeometry>
        </mxCell>
        <mxCell id="MP744RSqsg_AL9bL8WB9-5" value="" style="endArrow=classic;html=1;rounded=0;fontSize=8;exitX=0.5;exitY=1;exitDx=0;exitDy=0;entryX=0.25;entryY=0;entryDx=0;entryDy=0;" parent="1" source="6D9iCb6M0t1CrYdoZL59-11" target="MP744RSqsg_AL9bL8WB9-1" edge="1">
          <mxGeometry width="50" height="50" relative="1" as="geometry">
            <mxPoint x="410" y="474.58999999999986" as="sourcePoint" />
            <mxPoint x="360" y="509.58999999999986" as="targetPoint" />
          </mxGeometry>
        </mxCell>
        <mxCell id="MP744RSqsg_AL9bL8WB9-6" value="update url" style="edgeLabel;html=1;align=center;verticalAlign=middle;resizable=0;points=[];fontSize=8;" parent="MP744RSqsg_AL9bL8WB9-5" vertex="1" connectable="0">
          <mxGeometry x="-0.1317" relative="1" as="geometry">
            <mxPoint as="offset" />
          </mxGeometry>
        </mxCell>
        <mxCell id="MP744RSqsg_AL9bL8WB9-7" value="" style="endArrow=classic;html=1;rounded=0;fontSize=8;exitX=0.5;exitY=0;exitDx=0;exitDy=0;entryX=0.75;entryY=1;entryDx=0;entryDy=0;" parent="1" source="MP744RSqsg_AL9bL8WB9-1" target="6D9iCb6M0t1CrYdoZL59-11" edge="1">
          <mxGeometry width="50" height="50" relative="1" as="geometry">
            <mxPoint x="470" y="489.58999999999986" as="sourcePoint" />
            <mxPoint x="480" y="549.5899999999999" as="targetPoint" />
          </mxGeometry>
        </mxCell>
        <mxCell id="MP744RSqsg_AL9bL8WB9-8" value="url" style="edgeLabel;html=1;align=center;verticalAlign=middle;resizable=0;points=[];fontSize=8;" parent="MP744RSqsg_AL9bL8WB9-7" vertex="1" connectable="0">
          <mxGeometry x="-0.1317" relative="1" as="geometry">
            <mxPoint as="offset" />
          </mxGeometry>
        </mxCell>
        <mxCell id="MP744RSqsg_AL9bL8WB9-23" value="" style="group" parent="1" vertex="1" connectable="0">
          <mxGeometry x="452.5" y="779.59" width="95" height="110" as="geometry" />
        </mxCell>
        <mxCell id="MP744RSqsg_AL9bL8WB9-21" value="" style="shape=cylinder3;whiteSpace=wrap;html=1;boundedLbl=1;backgroundOutline=1;size=15;fontSize=8;" parent="MP744RSqsg_AL9bL8WB9-23" vertex="1">
          <mxGeometry y="40" width="95" height="50" as="geometry" />
        </mxCell>
        <mxCell id="MP744RSqsg_AL9bL8WB9-20" value="" style="shape=cylinder3;whiteSpace=wrap;html=1;boundedLbl=1;backgroundOutline=1;size=15;fontSize=8;" parent="MP744RSqsg_AL9bL8WB9-23" vertex="1">
          <mxGeometry y="20" width="95" height="50" as="geometry" />
        </mxCell>
        <mxCell id="MP744RSqsg_AL9bL8WB9-19" value="" style="shape=cylinder3;whiteSpace=wrap;html=1;boundedLbl=1;backgroundOutline=1;size=15;fontSize=8;" parent="MP744RSqsg_AL9bL8WB9-23" vertex="1">
          <mxGeometry width="95" height="50" as="geometry" />
        </mxCell>
        <mxCell id="MP744RSqsg_AL9bL8WB9-22" value="&lt;b&gt;FS&lt;/b&gt;" style="text;html=1;align=center;verticalAlign=middle;resizable=0;points=[];autosize=1;strokeColor=none;fillColor=none;fontSize=8;" parent="MP744RSqsg_AL9bL8WB9-23" vertex="1">
          <mxGeometry x="32.5" y="90" width="30" height="20" as="geometry" />
        </mxCell>
        <mxCell id="MP744RSqsg_AL9bL8WB9-28" style="edgeStyle=orthogonalEdgeStyle;rounded=0;orthogonalLoop=1;jettySize=auto;html=1;exitX=0.75;exitY=0;exitDx=0;exitDy=0;entryX=0.75;entryY=1;entryDx=0;entryDy=0;fontSize=8;startArrow=none;startFill=0;" parent="1" source="MP744RSqsg_AL9bL8WB9-24" target="WLP-57AbZ-gEJUiFifkE-1" edge="1">
          <mxGeometry relative="1" as="geometry" />
        </mxCell>
        <mxCell id="MP744RSqsg_AL9bL8WB9-29" value="data" style="edgeLabel;html=1;align=center;verticalAlign=middle;resizable=0;points=[];fontSize=8;" parent="MP744RSqsg_AL9bL8WB9-28" vertex="1" connectable="0">
          <mxGeometry x="-0.1776" relative="1" as="geometry">
            <mxPoint as="offset" />
          </mxGeometry>
        </mxCell>
        <mxCell id="MP744RSqsg_AL9bL8WB9-24" value="&lt;b&gt;Class:&lt;/b&gt;&lt;br&gt;ScraperWrapper" style="rounded=1;whiteSpace=wrap;html=1;fontSize=12;" parent="1" vertex="1">
          <mxGeometry x="260" y="659.59" width="120" height="60" as="geometry" />
        </mxCell>
        <mxCell id="MP744RSqsg_AL9bL8WB9-30" value="&lt;b&gt;Class:&lt;/b&gt;&lt;br&gt;FS Wrapper" style="rounded=1;whiteSpace=wrap;html=1;fontSize=12;" parent="1" vertex="1">
          <mxGeometry x="440" y="659.59" width="120" height="60" as="geometry" />
        </mxCell>
        <mxCell id="MP744RSqsg_AL9bL8WB9-32" style="edgeStyle=orthogonalEdgeStyle;rounded=0;orthogonalLoop=1;jettySize=auto;html=1;fontSize=8;startArrow=classic;startFill=1;" parent="1" edge="1">
          <mxGeometry relative="1" as="geometry">
            <mxPoint x="499.71" y="779.59" as="targetPoint" />
            <mxPoint x="499.71" y="719.59" as="sourcePoint" />
          </mxGeometry>
        </mxCell>
        <mxCell id="MP744RSqsg_AL9bL8WB9-33" value="FS API" style="edgeLabel;html=1;align=center;verticalAlign=middle;resizable=0;points=[];fontSize=8;" parent="MP744RSqsg_AL9bL8WB9-32" vertex="1" connectable="0">
          <mxGeometry x="0.2023" relative="1" as="geometry">
            <mxPoint y="-6" as="offset" />
          </mxGeometry>
        </mxCell>
        <mxCell id="MP744RSqsg_AL9bL8WB9-36" value="&lt;b&gt;&lt;font style=&quot;font-size: 14px;&quot;&gt;Scraping Library&lt;/font&gt;&lt;/b&gt;" style="text;html=1;strokeColor=none;fillColor=none;align=center;verticalAlign=middle;whiteSpace=wrap;rounded=0;fontSize=8;" parent="1" vertex="1">
          <mxGeometry x="290" y="779.59" width="60" height="30" as="geometry" />
        </mxCell>
        <mxCell id="TPmFgkTzvXRMbJjfcOce-8" style="edgeStyle=orthogonalEdgeStyle;rounded=0;orthogonalLoop=1;jettySize=auto;html=1;exitX=0.75;exitY=0;exitDx=0;exitDy=0;entryX=0.75;entryY=1;entryDx=0;entryDy=0;fontSize=8;startArrow=none;startFill=0;" parent="1" source="TPmFgkTzvXRMbJjfcOce-1" target="TPmFgkTzvXRMbJjfcOce-2" edge="1">
          <mxGeometry relative="1" as="geometry" />
        </mxCell>
        <mxCell id="TPmFgkTzvXRMbJjfcOce-9" value="confirmation" style="edgeLabel;html=1;align=center;verticalAlign=middle;resizable=0;points=[];fontSize=8;" parent="TPmFgkTzvXRMbJjfcOce-8" vertex="1" connectable="0">
          <mxGeometry x="0.2867" y="1" relative="1" as="geometry">
            <mxPoint y="9" as="offset" />
          </mxGeometry>
        </mxCell>
        <mxCell id="TPmFgkTzvXRMbJjfcOce-1" value="&lt;b&gt;Class:&lt;/b&gt;&lt;br&gt;DB Wrapper" style="rounded=1;whiteSpace=wrap;html=1;fontSize=12;" parent="1" vertex="1">
          <mxGeometry x="627.5" y="659.5899999999999" width="120" height="60" as="geometry" />
        </mxCell>
        <mxCell id="TPmFgkTzvXRMbJjfcOce-6" style="edgeStyle=orthogonalEdgeStyle;rounded=0;orthogonalLoop=1;jettySize=auto;html=1;exitX=0.25;exitY=1;exitDx=0;exitDy=0;entryX=0.25;entryY=0;entryDx=0;entryDy=0;fontSize=8;startArrow=none;startFill=0;" parent="1" source="TPmFgkTzvXRMbJjfcOce-2" target="TPmFgkTzvXRMbJjfcOce-1" edge="1">
          <mxGeometry relative="1" as="geometry" />
        </mxCell>
        <mxCell id="TPmFgkTzvXRMbJjfcOce-7" value="upload" style="edgeLabel;html=1;align=center;verticalAlign=middle;resizable=0;points=[];fontSize=8;" parent="TPmFgkTzvXRMbJjfcOce-6" vertex="1" connectable="0">
          <mxGeometry x="-0.2422" y="-1" relative="1" as="geometry">
            <mxPoint y="8" as="offset" />
          </mxGeometry>
        </mxCell>
        <mxCell id="TPmFgkTzvXRMbJjfcOce-2" value="&lt;b&gt;Class:&lt;/b&gt;&lt;br&gt;Vehicle" style="rounded=1;whiteSpace=wrap;html=1;fontSize=12;" parent="1" vertex="1">
          <mxGeometry x="627.5" y="539.5899999999999" width="120" height="60" as="geometry" />
        </mxCell>
        <mxCell id="TPmFgkTzvXRMbJjfcOce-14" value="" style="group" parent="1" vertex="1" connectable="0">
          <mxGeometry x="640" y="780" width="95" height="110" as="geometry" />
        </mxCell>
        <mxCell id="TPmFgkTzvXRMbJjfcOce-15" value="" style="shape=cylinder3;whiteSpace=wrap;html=1;boundedLbl=1;backgroundOutline=1;size=15;fontSize=8;" parent="TPmFgkTzvXRMbJjfcOce-14" vertex="1">
          <mxGeometry y="40" width="95" height="50" as="geometry" />
        </mxCell>
        <mxCell id="TPmFgkTzvXRMbJjfcOce-16" value="" style="shape=cylinder3;whiteSpace=wrap;html=1;boundedLbl=1;backgroundOutline=1;size=15;fontSize=8;" parent="TPmFgkTzvXRMbJjfcOce-14" vertex="1">
          <mxGeometry y="20" width="95" height="50" as="geometry" />
        </mxCell>
        <mxCell id="TPmFgkTzvXRMbJjfcOce-17" value="" style="shape=cylinder3;whiteSpace=wrap;html=1;boundedLbl=1;backgroundOutline=1;size=15;fontSize=8;" parent="TPmFgkTzvXRMbJjfcOce-14" vertex="1">
          <mxGeometry width="95" height="50" as="geometry" />
        </mxCell>
        <mxCell id="TPmFgkTzvXRMbJjfcOce-18" value="&lt;b&gt;Time Series DB&lt;/b&gt;" style="text;html=1;align=center;verticalAlign=middle;resizable=0;points=[];autosize=1;strokeColor=none;fillColor=none;fontSize=8;" parent="TPmFgkTzvXRMbJjfcOce-14" vertex="1">
          <mxGeometry x="7.5" y="90" width="80" height="20" as="geometry" />
        </mxCell>
        <mxCell id="TPmFgkTzvXRMbJjfcOce-20" style="edgeStyle=orthogonalEdgeStyle;rounded=0;orthogonalLoop=1;jettySize=auto;html=1;fontSize=8;startArrow=classic;startFill=1;exitX=0.5;exitY=1;exitDx=0;exitDy=0;entryX=0.5;entryY=0;entryDx=0;entryDy=0;entryPerimeter=0;" parent="1" source="TPmFgkTzvXRMbJjfcOce-1" target="TPmFgkTzvXRMbJjfcOce-17" edge="1">
          <mxGeometry relative="1" as="geometry">
            <mxPoint x="509.71000000000004" y="789.5900000000001" as="targetPoint" />
            <mxPoint x="509.71000000000004" y="729.5900000000001" as="sourcePoint" />
          </mxGeometry>
        </mxCell>
        <mxCell id="TPmFgkTzvXRMbJjfcOce-21" value="DB API" style="edgeLabel;html=1;align=center;verticalAlign=middle;resizable=0;points=[];fontSize=8;" parent="TPmFgkTzvXRMbJjfcOce-20" vertex="1" connectable="0">
          <mxGeometry x="0.2023" relative="1" as="geometry">
            <mxPoint y="-6" as="offset" />
          </mxGeometry>
        </mxCell>
        <mxCell id="TPmFgkTzvXRMbJjfcOce-22" style="edgeStyle=orthogonalEdgeStyle;rounded=0;orthogonalLoop=1;jettySize=auto;html=1;fontSize=8;startArrow=classic;startFill=1;" parent="1" edge="1">
          <mxGeometry relative="1" as="geometry">
            <mxPoint x="319.83000000000004" y="780.0000000000001" as="targetPoint" />
            <mxPoint x="319.83000000000004" y="720.0000000000001" as="sourcePoint" />
          </mxGeometry>
        </mxCell>
        <mxCell id="TPmFgkTzvXRMbJjfcOce-23" value="Scraping Library API" style="edgeLabel;html=1;align=center;verticalAlign=middle;resizable=0;points=[];fontSize=8;" parent="TPmFgkTzvXRMbJjfcOce-22" vertex="1" connectable="0">
          <mxGeometry x="0.2023" relative="1" as="geometry">
            <mxPoint y="-6" as="offset" />
          </mxGeometry>
        </mxCell>
        <mxCell id="TPmFgkTzvXRMbJjfcOce-24" value="&lt;b&gt;Class:&lt;/b&gt;&lt;br&gt;Logger" style="rounded=1;whiteSpace=wrap;html=1;fontSize=12;" parent="1" vertex="1">
          <mxGeometry x="630" y="95" width="120" height="60" as="geometry" />
        </mxCell>
        <mxCell id="TPmFgkTzvXRMbJjfcOce-25" value="&lt;font size=&quot;1&quot; color=&quot;#000000&quot;&gt;&lt;b style=&quot;&quot;&gt;All Classes have a&amp;nbsp;&lt;br&gt;reference to the same logger&lt;br&gt;&lt;/b&gt;&lt;/font&gt;" style="text;html=1;align=center;verticalAlign=top;resizable=0;points=[];autosize=1;strokeColor=none;fillColor=none;fontSize=8;fontColor=#FF3B14;" parent="1" vertex="1">
          <mxGeometry x="610" y="65" width="160" height="40" as="geometry" />
        </mxCell>
      </root>
    </mxGraphModel>
  </diagram>
  <diagram id="E3LjvizbVDPop4t1rhLU" name="Sequence Diagram">
    <mxGraphModel dx="1260" dy="740" grid="1" gridSize="10" guides="1" tooltips="1" connect="1" arrows="1" fold="1" page="1" pageScale="1" pageWidth="1100" pageHeight="850" math="0" shadow="0">
      <root>
        <mxCell id="0" />
        <mxCell id="1" parent="0" />
        <mxCell id="p-0WGBAeqbTFqupakbcD-1" value="&lt;font style=&quot;font-size: 10px;&quot;&gt;Scrape Schedular&lt;/font&gt;" style="rounded=0;whiteSpace=wrap;html=1;fontSize=10;fontColor=#000000;" vertex="1" parent="1">
          <mxGeometry x="50" y="60" width="60" height="30" as="geometry" />
        </mxCell>
        <mxCell id="sHPEjyQ4RWJrg6EwqFia-1" value="" style="endArrow=none;dashed=1;html=1;rounded=0;fontColor=#FF3B14;exitX=0.442;exitY=1.011;exitDx=0;exitDy=0;exitPerimeter=0;" edge="1" parent="1">
          <mxGeometry width="50" height="50" relative="1" as="geometry">
            <mxPoint x="80.46999999999994" y="89.99999999999993" as="sourcePoint" />
            <mxPoint x="79.52999999999989" y="339.67" as="targetPoint" />
          </mxGeometry>
        </mxCell>
        <mxCell id="sHPEjyQ4RWJrg6EwqFia-2" value="&lt;font style=&quot;font-size: 10px;&quot;&gt;Class:&lt;br style=&quot;font-size: 10px;&quot;&gt;Server&lt;br style=&quot;font-size: 10px;&quot;&gt;&lt;/font&gt;" style="rounded=0;whiteSpace=wrap;html=1;fontSize=10;fontColor=#000000;" vertex="1" parent="1">
          <mxGeometry x="130" y="60" width="60" height="30" as="geometry" />
        </mxCell>
        <mxCell id="sHPEjyQ4RWJrg6EwqFia-3" value="" style="endArrow=none;dashed=1;html=1;rounded=0;fontColor=#FF3B14;exitX=0.442;exitY=1.011;exitDx=0;exitDy=0;exitPerimeter=0;" edge="1" parent="1">
          <mxGeometry width="50" height="50" relative="1" as="geometry">
            <mxPoint x="160.4699999999999" y="89.99999999999989" as="sourcePoint" />
            <mxPoint x="159.52999999999986" y="339.6700000000001" as="targetPoint" />
          </mxGeometry>
        </mxCell>
        <mxCell id="sHPEjyQ4RWJrg6EwqFia-4" value="" style="endArrow=classic;html=1;rounded=0;fontColor=#FF3B14;" edge="1" parent="1">
          <mxGeometry width="50" height="50" relative="1" as="geometry">
            <mxPoint x="80" y="120" as="sourcePoint" />
            <mxPoint x="160" y="120" as="targetPoint" />
          </mxGeometry>
        </mxCell>
        <mxCell id="sHPEjyQ4RWJrg6EwqFia-5" value="&lt;font color=&quot;#000000&quot; style=&quot;font-size: 8px;&quot;&gt;Scrape Request&lt;/font&gt;" style="edgeLabel;html=1;align=center;verticalAlign=middle;resizable=0;points=[];fontColor=#FF3B14;" vertex="1" connectable="0" parent="sHPEjyQ4RWJrg6EwqFia-4">
          <mxGeometry x="0.2163" y="1" relative="1" as="geometry">
            <mxPoint x="-12" as="offset" />
          </mxGeometry>
        </mxCell>
        <mxCell id="sHPEjyQ4RWJrg6EwqFia-6" value="&lt;font style=&quot;font-size: 10px;&quot;&gt;Class:&lt;br style=&quot;font-size: 10px;&quot;&gt;HTTP Validator&lt;br style=&quot;font-size: 10px;&quot;&gt;&lt;/font&gt;" style="rounded=0;whiteSpace=wrap;html=1;fontSize=10;fontColor=#000000;" vertex="1" parent="1">
          <mxGeometry x="210" y="60" width="80" height="30" as="geometry" />
        </mxCell>
        <mxCell id="sHPEjyQ4RWJrg6EwqFia-7" value="" style="endArrow=none;dashed=1;html=1;rounded=0;fontColor=#FF3B14;exitX=0.442;exitY=1.011;exitDx=0;exitDy=0;exitPerimeter=0;" edge="1" parent="1">
          <mxGeometry width="50" height="50" relative="1" as="geometry">
            <mxPoint x="250.4699999999999" y="89.99999999999989" as="sourcePoint" />
            <mxPoint x="249.52999999999986" y="339.6700000000001" as="targetPoint" />
          </mxGeometry>
        </mxCell>
        <mxCell id="_j9sDEmW1B43wDUaSGsH-1" value="" style="endArrow=classic;html=1;rounded=0;fontColor=#FF3B14;" edge="1" parent="1">
          <mxGeometry width="50" height="50" relative="1" as="geometry">
            <mxPoint x="160" y="130" as="sourcePoint" />
            <mxPoint x="250" y="130" as="targetPoint" />
          </mxGeometry>
        </mxCell>
        <mxCell id="_j9sDEmW1B43wDUaSGsH-2" value="&lt;font color=&quot;#000000&quot; style=&quot;font-size: 8px;&quot;&gt;validate(http request)&lt;/font&gt;" style="edgeLabel;html=1;align=center;verticalAlign=middle;resizable=0;points=[];fontColor=#FF3B14;" vertex="1" connectable="0" parent="_j9sDEmW1B43wDUaSGsH-1">
          <mxGeometry x="0.2163" y="1" relative="1" as="geometry">
            <mxPoint x="-12" as="offset" />
          </mxGeometry>
        </mxCell>
        <mxCell id="_j9sDEmW1B43wDUaSGsH-3" value="" style="endArrow=classic;html=1;rounded=0;fontColor=#FF3B14;" edge="1" parent="1">
          <mxGeometry width="50" height="50" relative="1" as="geometry">
            <mxPoint x="250" y="150" as="sourcePoint" />
            <mxPoint x="160" y="150" as="targetPoint" />
          </mxGeometry>
        </mxCell>
        <mxCell id="_j9sDEmW1B43wDUaSGsH-4" value="&lt;font color=&quot;#000000&quot; style=&quot;font-size: 8px;&quot;&gt;valid&lt;/font&gt;" style="edgeLabel;html=1;align=center;verticalAlign=middle;resizable=0;points=[];fontColor=#FF3B14;" vertex="1" connectable="0" parent="_j9sDEmW1B43wDUaSGsH-3">
          <mxGeometry x="0.2163" y="1" relative="1" as="geometry">
            <mxPoint x="9" y="-1" as="offset" />
          </mxGeometry>
        </mxCell>
        <mxCell id="_j9sDEmW1B43wDUaSGsH-5" value="&lt;b style=&quot;font-size: 12px;&quot;&gt;&lt;font color=&quot;#ff3b14&quot;&gt;Server Sequence&lt;br&gt;&lt;/font&gt;&lt;/b&gt;" style="text;html=1;align=center;verticalAlign=middle;resizable=0;points=[];autosize=1;strokeColor=none;fillColor=none;fontSize=10;fontColor=#000000;" vertex="1" parent="1">
          <mxGeometry x="10" y="15" width="120" height="30" as="geometry" />
        </mxCell>
        <mxCell id="_j9sDEmW1B43wDUaSGsH-10" value="&lt;font style=&quot;font-size: 10px;&quot;&gt;Class:&lt;br style=&quot;font-size: 10px;&quot;&gt;Scrape&lt;br style=&quot;font-size: 10px;&quot;&gt;&lt;/font&gt;" style="rounded=0;whiteSpace=wrap;html=1;fontSize=10;fontColor=#000000;" vertex="1" parent="1">
          <mxGeometry x="310" y="60" width="80" height="30" as="geometry" />
        </mxCell>
        <mxCell id="_j9sDEmW1B43wDUaSGsH-11" value="" style="endArrow=none;dashed=1;html=1;rounded=0;fontColor=#FF3B14;exitX=0.442;exitY=1.011;exitDx=0;exitDy=0;exitPerimeter=0;" edge="1" parent="1">
          <mxGeometry width="50" height="50" relative="1" as="geometry">
            <mxPoint x="350.4699999999999" y="89.99999999999989" as="sourcePoint" />
            <mxPoint x="349.52999999999986" y="339.6700000000001" as="targetPoint" />
          </mxGeometry>
        </mxCell>
        <mxCell id="WS0-3axq4I7oYZHNoEgc-1" value="" style="endArrow=classic;html=1;rounded=0;fontColor=#FF3B14;" edge="1" parent="1">
          <mxGeometry width="50" height="50" relative="1" as="geometry">
            <mxPoint x="160" y="170" as="sourcePoint" />
            <mxPoint x="350" y="170" as="targetPoint" />
          </mxGeometry>
        </mxCell>
        <mxCell id="WS0-3axq4I7oYZHNoEgc-2" value="&lt;font color=&quot;#000000&quot; style=&quot;font-size: 8px;&quot;&gt;Scrape(url, filters, etc.)&lt;/font&gt;" style="edgeLabel;html=1;align=center;verticalAlign=middle;resizable=0;points=[];fontColor=#FF3B14;" vertex="1" connectable="0" parent="WS0-3axq4I7oYZHNoEgc-1">
          <mxGeometry x="0.2163" y="1" relative="1" as="geometry">
            <mxPoint x="-10" as="offset" />
          </mxGeometry>
        </mxCell>
        <mxCell id="-GS8bsLDm3ju-IJF_ga4-1" value="" style="endArrow=classic;html=1;rounded=0;fontColor=#FF3B14;" edge="1" parent="1">
          <mxGeometry width="50" height="50" relative="1" as="geometry">
            <mxPoint x="350" y="190" as="sourcePoint" />
            <mxPoint x="160" y="190" as="targetPoint" />
          </mxGeometry>
        </mxCell>
        <mxCell id="-GS8bsLDm3ju-IJF_ga4-2" value="&lt;font color=&quot;#000000&quot; style=&quot;font-size: 8px;&quot;&gt;Scrape object&lt;/font&gt;" style="edgeLabel;html=1;align=center;verticalAlign=middle;resizable=0;points=[];fontColor=#FF3B14;" vertex="1" connectable="0" parent="-GS8bsLDm3ju-IJF_ga4-1">
          <mxGeometry x="0.2163" y="1" relative="1" as="geometry">
            <mxPoint x="15" y="-1" as="offset" />
          </mxGeometry>
        </mxCell>
        <mxCell id="-GS8bsLDm3ju-IJF_ga4-3" value="&lt;font style=&quot;font-size: 10px;&quot;&gt;Class:&lt;br style=&quot;font-size: 10px;&quot;&gt;Scrape Queue&lt;br style=&quot;font-size: 10px;&quot;&gt;&lt;/font&gt;" style="rounded=0;whiteSpace=wrap;html=1;fontSize=10;fontColor=#000000;" vertex="1" parent="1">
          <mxGeometry x="410" y="60" width="80" height="30" as="geometry" />
        </mxCell>
        <mxCell id="-GS8bsLDm3ju-IJF_ga4-4" value="" style="endArrow=none;dashed=1;html=1;rounded=0;fontColor=#FF3B14;exitX=0.442;exitY=1.011;exitDx=0;exitDy=0;exitPerimeter=0;" edge="1" parent="1">
          <mxGeometry width="50" height="50" relative="1" as="geometry">
            <mxPoint x="450.4699999999999" y="89.99999999999989" as="sourcePoint" />
            <mxPoint x="449.52999999999986" y="339.6700000000001" as="targetPoint" />
          </mxGeometry>
        </mxCell>
        <mxCell id="-GS8bsLDm3ju-IJF_ga4-5" value="" style="endArrow=classic;html=1;rounded=0;fontColor=#FF3B14;" edge="1" parent="1">
          <mxGeometry width="50" height="50" relative="1" as="geometry">
            <mxPoint x="160" y="210" as="sourcePoint" />
            <mxPoint x="450" y="210" as="targetPoint" />
          </mxGeometry>
        </mxCell>
        <mxCell id="-GS8bsLDm3ju-IJF_ga4-6" value="&lt;font color=&quot;#000000&quot; style=&quot;font-size: 8px;&quot;&gt;push(Scrape obj)&lt;/font&gt;" style="edgeLabel;html=1;align=center;verticalAlign=middle;resizable=0;points=[];fontColor=#FF3B14;" vertex="1" connectable="0" parent="-GS8bsLDm3ju-IJF_ga4-5">
          <mxGeometry x="0.2163" y="1" relative="1" as="geometry">
            <mxPoint x="-37" y="-1" as="offset" />
          </mxGeometry>
        </mxCell>
        <mxCell id="86bnRvgabd5SxNXR8QsM-1" value="&lt;b style=&quot;font-size: 12px;&quot;&gt;&lt;font color=&quot;#ff3b14&quot;&gt;Data Ingestor Sequence&lt;br&gt;&lt;/font&gt;&lt;/b&gt;" style="text;html=1;align=center;verticalAlign=middle;resizable=0;points=[];autosize=1;strokeColor=none;fillColor=none;fontSize=10;fontColor=#000000;" vertex="1" parent="1">
          <mxGeometry x="10" y="370" width="160" height="30" as="geometry" />
        </mxCell>
        <mxCell id="dX9K-872YGgfLAYWq0w_-3" value="&lt;font style=&quot;font-size: 10px;&quot;&gt;Class:&lt;br&gt;Scrape Queue&lt;/font&gt;" style="rounded=0;whiteSpace=wrap;html=1;fontSize=10;fontColor=#000000;" vertex="1" parent="1">
          <mxGeometry x="40" y="410" width="80" height="30" as="geometry" />
        </mxCell>
        <mxCell id="dX9K-872YGgfLAYWq0w_-4" value="" style="endArrow=none;dashed=1;html=1;rounded=0;fontColor=#FF3B14;exitX=0.442;exitY=1.011;exitDx=0;exitDy=0;exitPerimeter=0;" edge="1" parent="1">
          <mxGeometry width="50" height="50" relative="1" as="geometry">
            <mxPoint x="80.46999999999991" y="439.9999999999999" as="sourcePoint" />
            <mxPoint x="80" y="830" as="targetPoint" />
          </mxGeometry>
        </mxCell>
        <mxCell id="dX9K-872YGgfLAYWq0w_-5" value="&lt;font style=&quot;font-size: 10px;&quot;&gt;Class:&lt;br style=&quot;font-size: 10px;&quot;&gt;DataIngestor&lt;br style=&quot;font-size: 10px;&quot;&gt;&lt;/font&gt;" style="rounded=0;whiteSpace=wrap;html=1;fontSize=10;fontColor=#000000;" vertex="1" parent="1">
          <mxGeometry x="140" y="410" width="60" height="30" as="geometry" />
        </mxCell>
        <mxCell id="dX9K-872YGgfLAYWq0w_-6" value="" style="endArrow=none;dashed=1;html=1;rounded=0;fontColor=#FF3B14;exitX=0.442;exitY=1.011;exitDx=0;exitDy=0;exitPerimeter=0;" edge="1" parent="1">
          <mxGeometry width="50" height="50" relative="1" as="geometry">
            <mxPoint x="170.4699999999999" y="439.9999999999999" as="sourcePoint" />
            <mxPoint x="170" y="830" as="targetPoint" />
          </mxGeometry>
        </mxCell>
        <mxCell id="dX9K-872YGgfLAYWq0w_-7" value="" style="endArrow=classic;html=1;rounded=0;fontColor=#FF3B14;" edge="1" parent="1">
          <mxGeometry width="50" height="50" relative="1" as="geometry">
            <mxPoint x="170" y="460" as="sourcePoint" />
            <mxPoint x="80" y="460" as="targetPoint" />
          </mxGeometry>
        </mxCell>
        <mxCell id="dX9K-872YGgfLAYWq0w_-8" value="&lt;font color=&quot;#000000&quot; style=&quot;font-size: 8px;&quot;&gt;pop()&lt;/font&gt;" style="edgeLabel;html=1;align=center;verticalAlign=middle;resizable=0;points=[];fontColor=#FF3B14;" vertex="1" connectable="0" parent="dX9K-872YGgfLAYWq0w_-7">
          <mxGeometry x="0.2163" y="1" relative="1" as="geometry">
            <mxPoint x="5" as="offset" />
          </mxGeometry>
        </mxCell>
        <mxCell id="dX9K-872YGgfLAYWq0w_-9" value="&lt;font style=&quot;font-size: 10px;&quot;&gt;Class:&lt;br style=&quot;font-size: 10px;&quot;&gt;Scrape&lt;br style=&quot;font-size: 10px;&quot;&gt;&lt;/font&gt;" style="rounded=0;whiteSpace=wrap;html=1;fontSize=10;fontColor=#000000;" vertex="1" parent="1">
          <mxGeometry x="220" y="410" width="80" height="30" as="geometry" />
        </mxCell>
        <mxCell id="dX9K-872YGgfLAYWq0w_-10" value="" style="endArrow=none;dashed=1;html=1;rounded=0;fontColor=#FF3B14;exitX=0.442;exitY=1.011;exitDx=0;exitDy=0;exitPerimeter=0;" edge="1" parent="1">
          <mxGeometry width="50" height="50" relative="1" as="geometry">
            <mxPoint x="260.4699999999999" y="439.9999999999999" as="sourcePoint" />
            <mxPoint x="260" y="830" as="targetPoint" />
          </mxGeometry>
        </mxCell>
        <mxCell id="dX9K-872YGgfLAYWq0w_-11" value="" style="endArrow=classic;html=1;rounded=0;fontColor=#FF3B14;" edge="1" parent="1">
          <mxGeometry width="50" height="50" relative="1" as="geometry">
            <mxPoint x="170" y="490" as="sourcePoint" />
            <mxPoint x="260" y="490" as="targetPoint" />
          </mxGeometry>
        </mxCell>
        <mxCell id="dX9K-872YGgfLAYWq0w_-12" value="&lt;font color=&quot;#000000&quot; style=&quot;font-size: 8px;&quot;&gt;scrape()&lt;/font&gt;" style="edgeLabel;html=1;align=center;verticalAlign=middle;resizable=0;points=[];fontColor=#FF3B14;" vertex="1" connectable="0" parent="dX9K-872YGgfLAYWq0w_-11">
          <mxGeometry x="0.2163" y="1" relative="1" as="geometry">
            <mxPoint x="-12" as="offset" />
          </mxGeometry>
        </mxCell>
        <mxCell id="dX9K-872YGgfLAYWq0w_-15" value="&lt;font style=&quot;font-size: 10px;&quot;&gt;Class:&lt;br style=&quot;font-size: 10px;&quot;&gt;Scrape Wrapper&lt;br style=&quot;font-size: 10px;&quot;&gt;&lt;/font&gt;" style="rounded=0;whiteSpace=wrap;html=1;fontSize=10;fontColor=#000000;" vertex="1" parent="1">
          <mxGeometry x="320" y="410" width="80" height="30" as="geometry" />
        </mxCell>
        <mxCell id="dX9K-872YGgfLAYWq0w_-16" value="" style="endArrow=none;dashed=1;html=1;rounded=0;fontColor=#FF3B14;exitX=0.442;exitY=1.011;exitDx=0;exitDy=0;exitPerimeter=0;" edge="1" parent="1">
          <mxGeometry width="50" height="50" relative="1" as="geometry">
            <mxPoint x="360.4699999999999" y="439.9999999999999" as="sourcePoint" />
            <mxPoint x="360" y="840" as="targetPoint" />
          </mxGeometry>
        </mxCell>
        <mxCell id="dX9K-872YGgfLAYWq0w_-17" value="" style="endArrow=classic;html=1;rounded=0;fontColor=#FF3B14;" edge="1" parent="1">
          <mxGeometry width="50" height="50" relative="1" as="geometry">
            <mxPoint x="260" y="510" as="sourcePoint" />
            <mxPoint x="360" y="510" as="targetPoint" />
          </mxGeometry>
        </mxCell>
        <mxCell id="dX9K-872YGgfLAYWq0w_-18" value="&lt;font color=&quot;#000000&quot; style=&quot;font-size: 8px;&quot;&gt;scrape(xpath, etc.)&lt;/font&gt;" style="edgeLabel;html=1;align=center;verticalAlign=middle;resizable=0;points=[];fontColor=#FF3B14;" vertex="1" connectable="0" parent="dX9K-872YGgfLAYWq0w_-17">
          <mxGeometry x="0.2163" y="1" relative="1" as="geometry">
            <mxPoint x="-10" as="offset" />
          </mxGeometry>
        </mxCell>
        <mxCell id="dX9K-872YGgfLAYWq0w_-19" value="" style="endArrow=classic;html=1;rounded=0;fontColor=#FF3B14;" edge="1" parent="1">
          <mxGeometry width="50" height="50" relative="1" as="geometry">
            <mxPoint x="360" y="530" as="sourcePoint" />
            <mxPoint x="260" y="530" as="targetPoint" />
          </mxGeometry>
        </mxCell>
        <mxCell id="dX9K-872YGgfLAYWq0w_-20" value="&lt;font color=&quot;#000000&quot; style=&quot;font-size: 8px;&quot;&gt;raw html text&lt;/font&gt;" style="edgeLabel;html=1;align=center;verticalAlign=middle;resizable=0;points=[];fontColor=#FF3B14;" vertex="1" connectable="0" parent="dX9K-872YGgfLAYWq0w_-19">
          <mxGeometry x="0.2163" y="1" relative="1" as="geometry">
            <mxPoint x="12" y="-2" as="offset" />
          </mxGeometry>
        </mxCell>
        <mxCell id="dX9K-872YGgfLAYWq0w_-21" value="&lt;font style=&quot;font-size: 10px;&quot;&gt;Class:&lt;br style=&quot;font-size: 10px;&quot;&gt;ThumbnailHandler&lt;br style=&quot;font-size: 10px;&quot;&gt;&lt;/font&gt;" style="rounded=0;whiteSpace=wrap;html=1;fontSize=10;fontColor=#000000;" vertex="1" parent="1">
          <mxGeometry x="420" y="410" width="100" height="30" as="geometry" />
        </mxCell>
        <mxCell id="dX9K-872YGgfLAYWq0w_-22" value="" style="endArrow=none;dashed=1;html=1;rounded=0;fontColor=#FF3B14;exitX=0.442;exitY=1.011;exitDx=0;exitDy=0;exitPerimeter=0;" edge="1" parent="1">
          <mxGeometry width="50" height="50" relative="1" as="geometry">
            <mxPoint x="470.4699999999998" y="439.9999999999999" as="sourcePoint" />
            <mxPoint x="470" y="840" as="targetPoint" />
          </mxGeometry>
        </mxCell>
        <mxCell id="hz__I11tkHudjFYQqXvp-1" value="" style="endArrow=classic;html=1;rounded=0;fontColor=#FF3B14;" edge="1" parent="1">
          <mxGeometry width="50" height="50" relative="1" as="geometry">
            <mxPoint x="80" y="480" as="sourcePoint" />
            <mxPoint x="170" y="480" as="targetPoint" />
          </mxGeometry>
        </mxCell>
        <mxCell id="hz__I11tkHudjFYQqXvp-2" value="&lt;font color=&quot;#000000&quot;&gt;&lt;span style=&quot;font-size: 8px;&quot;&gt;Scrape obj&lt;/span&gt;&lt;/font&gt;" style="edgeLabel;html=1;align=center;verticalAlign=middle;resizable=0;points=[];fontColor=#FF3B14;" vertex="1" connectable="0" parent="hz__I11tkHudjFYQqXvp-1">
          <mxGeometry x="0.2163" y="1" relative="1" as="geometry">
            <mxPoint x="-15" as="offset" />
          </mxGeometry>
        </mxCell>
        <mxCell id="hhdbckZN4qz15IW3pkQJ-1" value="" style="endArrow=classic;html=1;rounded=0;fontColor=#FF3B14;" edge="1" parent="1">
          <mxGeometry width="50" height="50" relative="1" as="geometry">
            <mxPoint x="260" y="550" as="sourcePoint" />
            <mxPoint x="170" y="550" as="targetPoint" />
          </mxGeometry>
        </mxCell>
        <mxCell id="hhdbckZN4qz15IW3pkQJ-2" value="&lt;font color=&quot;#000000&quot;&gt;&lt;span style=&quot;font-size: 8px;&quot;&gt;Vehicle obj List&lt;/span&gt;&lt;/font&gt;" style="edgeLabel;html=1;align=center;verticalAlign=middle;resizable=0;points=[];fontColor=#FF3B14;" vertex="1" connectable="0" parent="hhdbckZN4qz15IW3pkQJ-1">
          <mxGeometry x="0.2163" y="1" relative="1" as="geometry">
            <mxPoint x="12" y="-2" as="offset" />
          </mxGeometry>
        </mxCell>
        <mxCell id="FFbzdqlxiT9pwBgaVccv-4" value="" style="endArrow=classic;html=1;rounded=0;fontColor=#FF3B14;" edge="1" parent="1">
          <mxGeometry width="50" height="50" relative="1" as="geometry">
            <mxPoint x="170" y="570" as="sourcePoint" />
            <mxPoint x="470" y="570" as="targetPoint" />
          </mxGeometry>
        </mxCell>
        <mxCell id="FFbzdqlxiT9pwBgaVccv-5" value="&lt;font color=&quot;#000000&quot; style=&quot;font-size: 8px;&quot;&gt;updatUrl(id)&lt;/font&gt;" style="edgeLabel;html=1;align=center;verticalAlign=middle;resizable=0;points=[];fontColor=#FF3B14;" vertex="1" connectable="0" parent="FFbzdqlxiT9pwBgaVccv-4">
          <mxGeometry x="0.2163" y="1" relative="1" as="geometry">
            <mxPoint x="-22" as="offset" />
          </mxGeometry>
        </mxCell>
        <mxCell id="fgLJ9jS-USudPTsqoasQ-1" value="&lt;font style=&quot;font-size: 10px;&quot;&gt;Class:&lt;br style=&quot;font-size: 10px;&quot;&gt;FSWrapper&lt;br style=&quot;font-size: 10px;&quot;&gt;&lt;/font&gt;" style="rounded=0;whiteSpace=wrap;html=1;fontSize=10;fontColor=#000000;" vertex="1" parent="1">
          <mxGeometry x="540" y="410" width="100" height="30" as="geometry" />
        </mxCell>
        <mxCell id="fgLJ9jS-USudPTsqoasQ-2" value="" style="endArrow=none;dashed=1;html=1;rounded=0;fontColor=#FF3B14;exitX=0.442;exitY=1.011;exitDx=0;exitDy=0;exitPerimeter=0;" edge="1" parent="1">
          <mxGeometry width="50" height="50" relative="1" as="geometry">
            <mxPoint x="590.9399999999998" y="439.9999999999999" as="sourcePoint" />
            <mxPoint x="590" y="840" as="targetPoint" />
          </mxGeometry>
        </mxCell>
        <mxCell id="fgLJ9jS-USudPTsqoasQ-7" value="&lt;span style=&quot;background-color: rgb(255, 255, 255);&quot;&gt;&lt;b&gt;&lt;font style=&quot;font-size: 8px;&quot;&gt;alt&lt;br&gt;&lt;/font&gt;&lt;/b&gt;&lt;span style=&quot;font-size: 8px;&quot;&gt;if [cached_thumbnail != thumbnail]&lt;/span&gt;&lt;/span&gt;&lt;b&gt;&lt;font style=&quot;font-size: 8px;&quot;&gt;&lt;br&gt;&lt;/font&gt;&lt;/b&gt;" style="rounded=0;whiteSpace=wrap;html=1;fillColor=none;align=left;verticalAlign=top;horizontal=1;spacing=2;spacingTop=-8;strokeWidth=0.5;" vertex="1" parent="1">
          <mxGeometry x="440" y="580" width="170" height="80" as="geometry" />
        </mxCell>
        <mxCell id="fgLJ9jS-USudPTsqoasQ-8" value="" style="endArrow=classic;html=1;rounded=0;fontColor=#FF3B14;" edge="1" parent="1">
          <mxGeometry width="50" height="50" relative="1" as="geometry">
            <mxPoint x="470" y="620" as="sourcePoint" />
            <mxPoint x="590" y="620" as="targetPoint" />
          </mxGeometry>
        </mxCell>
        <mxCell id="fgLJ9jS-USudPTsqoasQ-9" value="&lt;font color=&quot;#000000&quot; style=&quot;font-size: 8px;&quot;&gt;upload(thumbnail)&lt;/font&gt;" style="edgeLabel;html=1;align=center;verticalAlign=middle;resizable=0;points=[];fontColor=#FF3B14;" vertex="1" connectable="0" parent="fgLJ9jS-USudPTsqoasQ-8">
          <mxGeometry x="0.2163" y="1" relative="1" as="geometry">
            <mxPoint x="-13" as="offset" />
          </mxGeometry>
        </mxCell>
        <mxCell id="fgLJ9jS-USudPTsqoasQ-10" value="" style="endArrow=classic;html=1;rounded=0;fontColor=#FF3B14;" edge="1" parent="1">
          <mxGeometry width="50" height="50" relative="1" as="geometry">
            <mxPoint x="470" y="640" as="sourcePoint" />
            <mxPoint x="470" y="640" as="targetPoint" />
            <Array as="points">
              <mxPoint x="590" y="640" />
            </Array>
          </mxGeometry>
        </mxCell>
        <mxCell id="fgLJ9jS-USudPTsqoasQ-11" value="&lt;font color=&quot;#000000&quot; style=&quot;font-size: 8px;&quot;&gt;url&lt;/font&gt;" style="edgeLabel;html=1;align=center;verticalAlign=middle;resizable=0;points=[];fontColor=#FF3B14;" vertex="1" connectable="0" parent="fgLJ9jS-USudPTsqoasQ-10">
          <mxGeometry x="0.2163" y="1" relative="1" as="geometry">
            <mxPoint x="-39" as="offset" />
          </mxGeometry>
        </mxCell>
        <mxCell id="fgLJ9jS-USudPTsqoasQ-12" value="" style="endArrow=classic;html=1;rounded=0;fontColor=#FF3B14;" edge="1" parent="1">
          <mxGeometry width="50" height="50" relative="1" as="geometry">
            <mxPoint x="350" y="670" as="sourcePoint" />
            <mxPoint x="170" y="670" as="targetPoint" />
            <Array as="points">
              <mxPoint x="470" y="670" />
            </Array>
          </mxGeometry>
        </mxCell>
        <mxCell id="fgLJ9jS-USudPTsqoasQ-13" value="&lt;font color=&quot;#000000&quot; style=&quot;font-size: 8px;&quot;&gt;updated url&lt;/font&gt;" style="edgeLabel;html=1;align=center;verticalAlign=middle;resizable=0;points=[];fontColor=#FF3B14;" vertex="1" connectable="0" parent="fgLJ9jS-USudPTsqoasQ-12">
          <mxGeometry x="0.2163" y="1" relative="1" as="geometry">
            <mxPoint x="-7" y="-2" as="offset" />
          </mxGeometry>
        </mxCell>
        <mxCell id="7xOEq8fxapm2oDQvtQea-1" value="&lt;font style=&quot;font-size: 10px;&quot;&gt;Class:&lt;br style=&quot;font-size: 10px;&quot;&gt;Vehicle&lt;br style=&quot;font-size: 10px;&quot;&gt;&lt;/font&gt;" style="rounded=0;whiteSpace=wrap;html=1;fontSize=10;fontColor=#000000;" vertex="1" parent="1">
          <mxGeometry x="660" y="410" width="80" height="30" as="geometry" />
        </mxCell>
        <mxCell id="7xOEq8fxapm2oDQvtQea-2" value="" style="endArrow=none;dashed=1;html=1;rounded=0;fontColor=#FF3B14;exitX=0.442;exitY=1.011;exitDx=0;exitDy=0;exitPerimeter=0;" edge="1" parent="1">
          <mxGeometry width="50" height="50" relative="1" as="geometry">
            <mxPoint x="700.9399999999998" y="440" as="sourcePoint" />
            <mxPoint x="700" y="840" as="targetPoint" />
          </mxGeometry>
        </mxCell>
        <mxCell id="YFHOCppwZPgFaW1kDNCF-1" value="" style="endArrow=classic;html=1;rounded=0;fontColor=#FF3B14;" edge="1" parent="1">
          <mxGeometry width="50" height="50" relative="1" as="geometry">
            <mxPoint x="170" y="690" as="sourcePoint" />
            <mxPoint x="700" y="690" as="targetPoint" />
          </mxGeometry>
        </mxCell>
        <mxCell id="YFHOCppwZPgFaW1kDNCF-2" value="&lt;font color=&quot;#000000&quot; style=&quot;font-size: 8px;&quot;&gt;upload(DBWrapper obj)&lt;/font&gt;" style="edgeLabel;html=1;align=center;verticalAlign=middle;resizable=0;points=[];fontColor=#FF3B14;" vertex="1" connectable="0" parent="YFHOCppwZPgFaW1kDNCF-1">
          <mxGeometry x="0.2163" y="1" relative="1" as="geometry">
            <mxPoint x="-82" as="offset" />
          </mxGeometry>
        </mxCell>
        <mxCell id="HnQZgZn3-4qMqxm8epUq-1" value="" style="endArrow=classic;html=1;rounded=0;fontColor=#FF3B14;" edge="1" parent="1">
          <mxGeometry width="50" height="50" relative="1" as="geometry">
            <mxPoint x="700" y="760" as="sourcePoint" />
            <mxPoint x="170" y="760" as="targetPoint" />
          </mxGeometry>
        </mxCell>
        <mxCell id="HnQZgZn3-4qMqxm8epUq-2" value="&lt;font color=&quot;#000000&quot; style=&quot;font-size: 8px;&quot;&gt;status&lt;/font&gt;" style="edgeLabel;html=1;align=center;verticalAlign=middle;resizable=0;points=[];fontColor=#FF3B14;" vertex="1" connectable="0" parent="HnQZgZn3-4qMqxm8epUq-1">
          <mxGeometry x="0.2163" y="1" relative="1" as="geometry">
            <mxPoint x="115" y="-3" as="offset" />
          </mxGeometry>
        </mxCell>
        <mxCell id="HnQZgZn3-4qMqxm8epUq-3" value="&lt;font style=&quot;font-size: 10px;&quot;&gt;Class:&lt;br style=&quot;font-size: 10px;&quot;&gt;DBWrapper&lt;br style=&quot;font-size: 10px;&quot;&gt;&lt;/font&gt;" style="rounded=0;whiteSpace=wrap;html=1;fontSize=10;fontColor=#000000;" vertex="1" parent="1">
          <mxGeometry x="760" y="410" width="80" height="30" as="geometry" />
        </mxCell>
        <mxCell id="HnQZgZn3-4qMqxm8epUq-4" value="" style="endArrow=none;dashed=1;html=1;rounded=0;fontColor=#FF3B14;exitX=0.442;exitY=1.011;exitDx=0;exitDy=0;exitPerimeter=0;" edge="1" parent="1">
          <mxGeometry width="50" height="50" relative="1" as="geometry">
            <mxPoint x="800.9399999999998" y="440" as="sourcePoint" />
            <mxPoint x="800" y="840" as="targetPoint" />
          </mxGeometry>
        </mxCell>
        <mxCell id="HnQZgZn3-4qMqxm8epUq-5" value="" style="endArrow=classic;html=1;rounded=0;fontColor=#FF3B14;" edge="1" parent="1">
          <mxGeometry width="50" height="50" relative="1" as="geometry">
            <mxPoint x="700" y="700" as="sourcePoint" />
            <mxPoint x="800" y="700" as="targetPoint" />
          </mxGeometry>
        </mxCell>
        <mxCell id="HnQZgZn3-4qMqxm8epUq-6" value="&lt;font color=&quot;#000000&quot; style=&quot;font-size: 8px;&quot;&gt;upload(data)&lt;/font&gt;" style="edgeLabel;html=1;align=center;verticalAlign=middle;resizable=0;points=[];fontColor=#FF3B14;" vertex="1" connectable="0" parent="HnQZgZn3-4qMqxm8epUq-5">
          <mxGeometry x="0.2163" y="1" relative="1" as="geometry">
            <mxPoint x="-10" as="offset" />
          </mxGeometry>
        </mxCell>
        <mxCell id="HnQZgZn3-4qMqxm8epUq-7" value="Vehicle DB Raw Data" style="rounded=0;whiteSpace=wrap;html=1;fontSize=10;fontColor=#000000;" vertex="1" parent="1">
          <mxGeometry x="860" y="410" width="80" height="30" as="geometry" />
        </mxCell>
        <mxCell id="HnQZgZn3-4qMqxm8epUq-8" value="" style="endArrow=none;dashed=1;html=1;rounded=0;fontColor=#FF3B14;exitX=0.442;exitY=1.011;exitDx=0;exitDy=0;exitPerimeter=0;" edge="1" parent="1">
          <mxGeometry width="50" height="50" relative="1" as="geometry">
            <mxPoint x="900.9399999999998" y="440" as="sourcePoint" />
            <mxPoint x="899.9999999999998" y="840" as="targetPoint" />
          </mxGeometry>
        </mxCell>
        <mxCell id="HnQZgZn3-4qMqxm8epUq-9" value="" style="endArrow=classic;html=1;rounded=0;fontColor=#FF3B14;" edge="1" parent="1">
          <mxGeometry width="50" height="50" relative="1" as="geometry">
            <mxPoint x="800" y="710" as="sourcePoint" />
            <mxPoint x="900" y="710" as="targetPoint" />
          </mxGeometry>
        </mxCell>
        <mxCell id="HnQZgZn3-4qMqxm8epUq-10" value="&lt;font color=&quot;#000000&quot; style=&quot;font-size: 8px;&quot;&gt;upload(data)&lt;/font&gt;" style="edgeLabel;html=1;align=center;verticalAlign=middle;resizable=0;points=[];fontColor=#FF3B14;" vertex="1" connectable="0" parent="HnQZgZn3-4qMqxm8epUq-9">
          <mxGeometry x="0.2163" y="1" relative="1" as="geometry">
            <mxPoint x="-10" as="offset" />
          </mxGeometry>
        </mxCell>
        <mxCell id="HnQZgZn3-4qMqxm8epUq-11" value="" style="endArrow=classic;html=1;rounded=0;fontColor=#FF3B14;" edge="1" parent="1">
          <mxGeometry width="50" height="50" relative="1" as="geometry">
            <mxPoint x="900" y="730" as="sourcePoint" />
            <mxPoint x="800" y="730" as="targetPoint" />
          </mxGeometry>
        </mxCell>
        <mxCell id="HnQZgZn3-4qMqxm8epUq-12" value="&lt;font color=&quot;#000000&quot; style=&quot;font-size: 8px;&quot;&gt;status&lt;/font&gt;" style="edgeLabel;html=1;align=center;verticalAlign=middle;resizable=0;points=[];fontColor=#FF3B14;" vertex="1" connectable="0" parent="HnQZgZn3-4qMqxm8epUq-11">
          <mxGeometry x="0.2163" y="1" relative="1" as="geometry">
            <mxPoint x="11" as="offset" />
          </mxGeometry>
        </mxCell>
        <mxCell id="HnQZgZn3-4qMqxm8epUq-13" value="" style="endArrow=classic;html=1;rounded=0;fontColor=#FF3B14;" edge="1" parent="1">
          <mxGeometry width="50" height="50" relative="1" as="geometry">
            <mxPoint x="800" y="750" as="sourcePoint" />
            <mxPoint x="700" y="750" as="targetPoint" />
          </mxGeometry>
        </mxCell>
        <mxCell id="HnQZgZn3-4qMqxm8epUq-14" value="&lt;font color=&quot;#000000&quot; style=&quot;font-size: 8px;&quot;&gt;status&lt;/font&gt;" style="edgeLabel;html=1;align=center;verticalAlign=middle;resizable=0;points=[];fontColor=#FF3B14;" vertex="1" connectable="0" parent="HnQZgZn3-4qMqxm8epUq-13">
          <mxGeometry x="0.2163" y="1" relative="1" as="geometry">
            <mxPoint x="11" as="offset" />
          </mxGeometry>
        </mxCell>
        <mxCell id="HnQZgZn3-4qMqxm8epUq-19" value="" style="endArrow=classic;html=1;rounded=0;fontColor=#FF3B14;" edge="1" parent="1">
          <mxGeometry width="50" height="50" relative="1" as="geometry">
            <mxPoint x="170" y="770" as="sourcePoint" />
            <mxPoint x="80" y="770" as="targetPoint" />
          </mxGeometry>
        </mxCell>
        <mxCell id="HnQZgZn3-4qMqxm8epUq-20" value="&lt;font color=&quot;#000000&quot; style=&quot;font-size: 8px;&quot;&gt;pop()&lt;/font&gt;" style="edgeLabel;html=1;align=center;verticalAlign=middle;resizable=0;points=[];fontColor=#FF3B14;" vertex="1" connectable="0" parent="HnQZgZn3-4qMqxm8epUq-19">
          <mxGeometry x="0.2163" y="1" relative="1" as="geometry">
            <mxPoint x="5" as="offset" />
          </mxGeometry>
        </mxCell>
        <mxCell id="HnQZgZn3-4qMqxm8epUq-21" value="" style="endArrow=classic;html=1;rounded=0;fontColor=#FF3B14;" edge="1" parent="1">
          <mxGeometry width="50" height="50" relative="1" as="geometry">
            <mxPoint x="80" y="790" as="sourcePoint" />
            <mxPoint x="170" y="790" as="targetPoint" />
          </mxGeometry>
        </mxCell>
        <mxCell id="HnQZgZn3-4qMqxm8epUq-22" value="&lt;font color=&quot;#000000&quot;&gt;&lt;span style=&quot;font-size: 8px;&quot;&gt;Scrape obj&lt;/span&gt;&lt;/font&gt;" style="edgeLabel;html=1;align=center;verticalAlign=middle;resizable=0;points=[];fontColor=#FF3B14;" vertex="1" connectable="0" parent="HnQZgZn3-4qMqxm8epUq-21">
          <mxGeometry x="0.2163" y="1" relative="1" as="geometry">
            <mxPoint x="-15" as="offset" />
          </mxGeometry>
        </mxCell>
      </root>
    </mxGraphModel>
  </diagram>
  <diagram id="cH81ksLA5Dzl1n_XovKZ" name="Class Diagram">
    <mxGraphModel dx="1054" dy="740" grid="1" gridSize="10" guides="1" tooltips="1" connect="1" arrows="1" fold="1" page="1" pageScale="1" pageWidth="850" pageHeight="1100" math="0" shadow="0">
      <root>
        <mxCell id="0" />
        <mxCell id="1" parent="0" />
      </root>
    </mxGraphModel>
  </diagram>
</mxfile>
